<svg width="404" height="400" viewBox="0 0 404 400" fill="none" xmlns="http://www.w3.org/2000/svg">
<mask id="path-1-outside-1" maskUnits="userSpaceOnUse" x="0" y="175.867" width="89" height="70" fill="black">
<rect fill="white" y="175.867" width="89" height="70"/>
<path fill-rule="evenodd" clip-rule="evenodd" d="M69.5359 176.867C66.4016 176.867 63.7664 179.219 63.4122 182.334L60.6689 206.451H85.4944L88.0978 182.327C88.4124 179.411 86.1281 176.867 83.1957 176.867H69.5359ZM1.01896 182.226C0.768074 179.345 3.03907 176.867 5.93097 176.867H19.5882C22.7712 176.867 25.4305 179.291 25.725 182.46L27.9541 206.451H27.9556C29.4007 214.169 36.174 220.01 44.3115 220.01C52.4491 220.01 59.2224 214.169 60.6675 206.451H85.492C83.9157 227.817 66.0808 244.663 44.3115 244.663C22.5422 244.663 4.7074 227.817 3.13104 206.451H3.12857L1.01896 182.226Z"/>
</mask>
<path d="M63.4122 182.334L62.7998 182.264L62.7998 182.264L63.4122 182.334ZM60.6689 206.451L60.0565 206.381L59.9784 207.067H60.6689V206.451ZM85.4944 206.451V207.067H86.0478L86.1072 206.517L85.4944 206.451ZM88.0978 182.327L87.485 182.26L87.485 182.26L88.0978 182.327ZM1.01896 182.226L0.404959 182.279L1.01896 182.226ZM25.725 182.46L26.3387 182.403L26.3387 182.403L25.725 182.46ZM27.9541 206.451L27.3404 206.508L27.3924 207.067H27.9541V206.451ZM27.9556 206.451L28.5614 206.337L28.4672 205.834H27.9556V206.451ZM60.6675 206.451V205.834H60.1559L60.0617 206.337L60.6675 206.451ZM85.492 206.451L86.1067 206.496L86.1555 205.834H85.492V206.451ZM3.13104 206.451L3.7457 206.405L3.70357 205.834H3.13104V206.451ZM3.12857 206.451L2.51457 206.504L2.56359 207.067H3.12857V206.451ZM64.0245 182.403C64.3434 179.6 66.715 177.483 69.5359 177.483V176.251C66.0881 176.251 63.1894 178.838 62.7998 182.264L64.0245 182.403ZM61.2812 206.52L64.0245 182.403L62.7998 182.264L60.0565 206.381L61.2812 206.52ZM85.4944 205.834H60.6689V207.067H85.4944V205.834ZM87.485 182.26L84.8816 206.384L86.1072 206.517L88.7106 182.393L87.485 182.26ZM83.1957 177.483C85.7616 177.483 87.7603 179.709 87.485 182.26L88.7106 182.393C89.0645 179.113 86.4947 176.251 83.1957 176.251V177.483ZM69.5359 177.483H83.1957V176.251H69.5359V177.483ZM5.93097 176.251C2.67758 176.251 0.122712 179.038 0.404959 182.279L1.63296 182.172C1.41344 179.651 3.40056 177.483 5.93097 177.483V176.251ZM19.5882 176.251H5.93097V177.483H19.5882V176.251ZM26.3387 182.403C26.0148 178.917 23.0894 176.251 19.5882 176.251V177.483C22.4529 177.483 24.8463 179.665 25.1113 182.517L26.3387 182.403ZM28.5678 206.394L26.3387 182.403L25.1113 182.517L27.3404 206.508L28.5678 206.394ZM27.9556 205.834H27.9541V207.067H27.9556V205.834ZM44.3115 219.393C36.4761 219.393 29.9529 213.769 28.5614 206.337L27.3498 206.564C28.8485 214.568 35.872 220.626 44.3115 220.626V219.393ZM60.0617 206.337C58.6702 213.769 52.147 219.393 44.3115 219.393V220.626C52.7511 220.626 59.7746 214.568 61.2733 206.564L60.0617 206.337ZM85.492 205.834H60.6675V207.067H85.492V205.834ZM44.3115 245.279C66.406 245.279 84.5068 228.182 86.1067 206.496L84.8774 206.405C83.3247 227.452 65.7557 244.046 44.3115 244.046V245.279ZM2.51639 206.496C4.11632 228.182 22.2171 245.279 44.3115 245.279V244.046C22.8674 244.046 5.29848 227.452 3.7457 206.405L2.51639 206.496ZM3.12857 207.067H3.13104V205.834H3.12857V207.067ZM0.404959 182.279L2.51457 206.504L3.74258 206.397L1.63296 182.172L0.404959 182.279Z" fill="#2A73FC" mask="url(#path-1-outside-1)"/>
<mask id="path-3-inside-2" fill="white">
<path fill-rule="evenodd" clip-rule="evenodd" d="M84.1225 227.487C76.3156 241.414 61.4127 250.826 44.3115 250.826C27.2422 250.826 12.3629 241.449 4.54419 227.565L9.11016 224.969C16.3756 236.784 29.4234 244.663 44.3113 244.663C59.2528 244.663 72.3407 236.727 79.5906 224.841L84.1225 227.487Z"/>
</mask>
<path d="M84.1225 227.487L84.6601 227.789L84.9563 227.26L84.4333 226.955L84.1225 227.487ZM4.54419 227.565L4.23954 227.029L3.70599 227.333L4.00717 227.867L4.54419 227.565ZM9.11016 224.969L9.63517 224.646L9.32322 224.139L8.80551 224.433L9.11016 224.969ZM79.5906 224.841L79.9013 224.309L79.3792 224.004L79.0644 224.52L79.5906 224.841ZM44.3115 251.442C61.6446 251.442 76.7486 241.902 84.6601 227.789L83.5849 227.186C75.8826 240.926 61.1808 250.21 44.3115 250.21V251.442ZM4.00717 227.867C11.9307 241.937 27.0107 251.442 44.3115 251.442V250.21C27.4736 250.21 12.7952 240.96 5.08121 227.263L4.00717 227.867ZM4.84884 228.101L9.41481 225.504L8.80551 224.433L4.23954 227.029L4.84884 228.101ZM8.58515 225.291C15.9581 237.282 29.2005 245.279 44.3113 245.279V244.047C29.6463 244.047 16.7932 236.287 9.63517 224.646L8.58515 225.291ZM44.3113 245.279C59.4765 245.279 72.7597 237.224 80.1167 225.162L79.0644 224.52C71.9218 236.231 59.029 244.047 44.3113 244.047V245.279ZM79.2798 225.373L83.8118 228.02L84.4333 226.955L79.9013 224.309L79.2798 225.373Z" fill="#2A73FC" mask="url(#path-3-inside-2)"/>
<mask id="path-5-outside-3" maskUnits="userSpaceOnUse" x="2.01746" y="243.448" width="85" height="78" fill="black">
<rect fill="white" x="2.01746" y="243.448" width="85" height="78"/>
<path fill-rule="evenodd" clip-rule="evenodd" d="M21.0347 244.448C10.1566 251.884 3.01746 264.389 3.01746 278.561C3.01746 301.367 21.5053 319.855 44.3112 319.855C67.1171 319.855 85.605 301.367 85.605 278.561C85.605 264.389 78.4658 251.884 67.5876 244.448C60.7736 248.499 52.8141 250.826 44.3111 250.826C35.8082 250.826 27.8487 248.499 21.0347 244.448Z"/>
</mask>
<path d="M21.0347 244.448L21.3497 243.918L21.0116 243.717L20.6869 243.939L21.0347 244.448ZM67.5876 244.448L67.9355 243.939L67.6108 243.717L67.2726 243.918L67.5876 244.448ZM3.63378 278.561C3.63378 264.601 10.6653 252.283 21.3825 244.956L20.6869 243.939C9.64794 251.486 2.40113 264.177 2.40113 278.561H3.63378ZM44.3112 319.238C21.8457 319.238 3.63378 301.026 3.63378 278.561H2.40113C2.40113 301.707 21.1649 320.471 44.3112 320.471V319.238ZM84.9886 278.561C84.9886 301.026 66.7767 319.238 44.3112 319.238V320.471C67.4575 320.471 86.2213 301.707 86.2213 278.561H84.9886ZM67.2398 244.956C77.9571 252.283 84.9886 264.601 84.9886 278.561H86.2213C86.2213 264.177 78.9744 251.486 67.9355 243.939L67.2398 244.956ZM67.2726 243.918C60.5513 247.915 52.7002 250.21 44.3111 250.21V251.443C52.928 251.443 60.996 249.084 67.9026 244.977L67.2726 243.918ZM44.3111 250.21C35.9221 250.21 28.071 247.915 21.3497 243.918L20.7197 244.977C27.6264 249.084 35.6943 251.443 44.3111 251.443V250.21Z" fill="#2A73FC" mask="url(#path-5-outside-3)"/>
<circle r="10.7857" transform="matrix(1 0 0 -1 44.3111 278.561)" stroke="#2A73FC" stroke-width="0.616325"/>
<mask id="path-8-inside-4" fill="white">
<path fill-rule="evenodd" clip-rule="evenodd" d="M130.292 145.969L127.241 149.02L116.59 139.188L115.256 140.522L108.066 134.203L70.3685 96.5056C68.0125 98.3278 66.1294 99.2394 65.5744 98.6844C64.732 97.842 67.2686 93.9397 71.2399 89.9683C75.2113 85.9969 79.1137 83.4604 79.9561 84.3028C80.5111 84.8578 79.5995 86.7409 77.7772 89.0969L115.474 126.794L121.794 133.985L120.46 135.318L130.292 145.969Z"/>
</mask>
<path d="M127.241 149.02L127.677 149.456L127.259 149.874L126.823 149.473L127.241 149.02ZM130.292 145.969L130.745 145.551L131.147 145.986L130.728 146.405L130.292 145.969ZM116.59 139.188L116.154 138.752L116.573 138.334L117.008 138.735L116.59 139.188ZM115.256 140.522L115.692 140.958L115.284 141.366L114.85 140.985L115.256 140.522ZM108.066 134.203L107.659 134.666L107.644 134.653L107.63 134.639L108.066 134.203ZM70.3685 96.5056L69.9915 96.0181L70.4207 95.6861L70.8043 96.0698L70.3685 96.5056ZM77.7772 89.0969L77.3414 89.5327L76.9578 89.149L77.2897 88.7198L77.7772 89.0969ZM115.474 126.794L115.91 126.358L115.924 126.372L115.937 126.387L115.474 126.794ZM121.794 133.985L122.257 133.578L122.638 134.012L122.229 134.421L121.794 133.985ZM120.46 135.318L120.007 135.736L119.606 135.301L120.024 134.882L120.46 135.318ZM126.806 148.584L129.856 145.533L130.728 146.405L127.677 149.456L126.806 148.584ZM117.008 138.735L127.659 148.567L126.823 149.473L116.172 139.641L117.008 138.735ZM117.026 139.624L115.692 140.958L114.821 140.086L116.154 138.752L117.026 139.624ZM114.85 140.985L107.659 134.666L108.473 133.74L115.663 140.059L114.85 140.985ZM107.63 134.639L69.9327 96.9414L70.8043 96.0698L108.501 133.767L107.63 134.639ZM70.7456 96.9931C69.5506 97.9174 68.4493 98.6319 67.555 99.0458C67.1111 99.2512 66.6838 99.399 66.3017 99.4461C65.9323 99.4916 65.4744 99.456 65.1386 99.1202L66.0103 98.2486C65.952 98.1904 65.9376 98.249 66.151 98.2227C66.3517 98.198 66.6465 98.108 67.0372 97.9272C67.8122 97.5685 68.8304 96.9161 69.9915 96.0181L70.7456 96.9931ZM65.1386 99.1202C64.8842 98.8658 64.8022 98.5368 64.7969 98.242C64.7917 97.9507 64.8585 97.6397 64.9609 97.3314C65.1663 96.7127 65.5606 95.971 66.0853 95.1638C67.1402 93.5408 68.7975 91.5392 70.8041 89.5325L71.6758 90.4041C69.711 92.3688 68.1143 94.304 67.1188 95.8356C66.6182 96.6057 66.2881 97.2458 66.1307 97.7198C66.0517 97.9579 66.0276 98.121 66.0294 98.2199C66.0311 98.3153 66.0541 98.2925 66.0103 98.2486L65.1386 99.1202ZM70.8041 89.5325C72.8108 87.5258 74.8125 85.8686 76.4355 84.8136C77.2427 84.2889 77.9843 83.8946 78.6031 83.6892C78.9114 83.5869 79.2223 83.52 79.5137 83.5253C79.8084 83.5305 80.1375 83.6125 80.3919 83.867L79.5203 84.7386C79.5641 84.7824 79.5869 84.7594 79.4915 84.7577C79.3927 84.7559 79.2296 84.78 78.9915 84.8591C78.5175 85.0164 77.8774 85.3465 77.1073 85.8471C75.5757 86.8427 73.6405 88.4394 71.6758 90.4041L70.8041 89.5325ZM80.3919 83.867C80.7276 84.2027 80.7632 84.6607 80.7177 85.03C80.6707 85.4121 80.5229 85.8394 80.3175 86.2833C79.9035 87.1777 79.189 88.279 78.2648 89.4739L77.2897 88.7198C78.1877 87.5588 78.8401 86.5405 79.1988 85.7656C79.3797 85.3748 79.4696 85.0801 79.4943 84.8794C79.5206 84.6659 79.462 84.6804 79.5203 84.7386L80.3919 83.867ZM78.2131 88.6611L115.91 126.358L115.039 127.23L77.3414 89.5327L78.2131 88.6611ZM115.937 126.387L122.257 133.578L121.331 134.392L115.011 127.201L115.937 126.387ZM122.229 134.421L120.896 135.754L120.024 134.882L121.358 133.549L122.229 134.421ZM129.839 146.387L120.007 135.736L120.913 134.9L130.745 145.551L129.839 146.387Z" fill="#2A73FC" mask="url(#path-8-inside-4)"/>
<mask id="path-10-inside-5" fill="white">
<path fill-rule="evenodd" clip-rule="evenodd" d="M69.3786 92.8725L34.648 57.3051C33.3716 58.1193 32.2663 58.4042 31.7989 57.9367C31.0768 57.2147 32.15 54.9708 34.1958 52.925C36.2417 50.8791 38.4855 49.8059 39.2076 50.528C39.6751 50.9955 39.3901 52.1007 38.5759 53.3772L74.1434 88.1077C73.3423 88.7977 72.5105 89.5692 71.6756 90.4041C70.8404 91.2392 70.0688 92.0713 69.3786 92.8725Z"/>
</mask>
<path d="M69.3786 92.8725L69.8456 93.2748L69.4071 93.7839L68.9376 93.3031L69.3786 92.8725ZM34.648 57.3051L34.3166 56.7855L34.739 56.516L35.089 56.8745L34.648 57.3051ZM38.5759 53.3772L38.1454 53.8181L37.7869 53.4681L38.0563 53.0457L38.5759 53.3772ZM74.1434 88.1077L74.5739 87.6667L75.0547 88.1361L74.5456 88.5747L74.1434 88.1077ZM68.9376 93.3031L34.2071 57.7357L35.089 56.8745L69.8196 92.4419L68.9376 93.3031ZM34.9795 57.8247C34.3087 58.2526 33.6468 58.5657 33.0593 58.7019C32.5025 58.831 31.8286 58.8381 31.3631 58.3725L32.2347 57.5009C32.2366 57.5029 32.3491 57.6012 32.7809 57.5011C33.182 57.4082 33.7109 57.1718 34.3166 56.7855L34.9795 57.8247ZM31.3631 58.3725C31.0024 58.0119 30.9276 57.5206 30.9672 57.0813C31.0073 56.6375 31.1691 56.1513 31.4034 55.6614C31.8745 54.6762 32.7011 53.548 33.76 52.4891L34.6316 53.3608C33.6447 54.3477 32.9118 55.3644 32.5154 56.1932C32.3159 56.6102 32.2169 56.9482 32.1949 57.1921C32.1725 57.4405 32.2343 57.5006 32.2347 57.5009L31.3631 58.3725ZM33.76 52.4891C34.8189 51.4303 35.9471 50.6036 36.9322 50.1325C37.4221 49.8982 37.9084 49.7364 38.3522 49.6964C38.7915 49.6567 39.2827 49.7315 39.6434 50.0922L38.7718 50.9638C38.7715 50.9635 38.7114 50.9016 38.463 50.924C38.2191 50.9461 37.8811 51.0451 37.464 51.2445C36.6353 51.6409 35.6186 52.3738 34.6316 53.3608L33.76 52.4891ZM39.6434 50.0922C40.1089 50.5577 40.1018 51.2316 39.9728 51.7884C39.8366 52.3759 39.5234 53.0378 39.0956 53.7086L38.0563 53.0457C38.4426 52.4401 38.679 51.9111 38.772 51.5101C38.8721 51.0782 38.7737 50.9658 38.7718 50.9638L39.6434 50.0922ZM39.0065 52.9362L74.5739 87.6667L73.7128 88.5487L38.1454 53.8181L39.0065 52.9362ZM74.5456 88.5747C73.7566 89.2543 72.936 90.0153 72.1114 90.8399L71.2398 89.9683C72.085 89.1231 72.928 88.3411 73.7411 87.6407L74.5456 88.5747ZM72.1114 90.8399C71.2866 91.6647 70.5253 92.4856 69.8456 93.2748L68.9116 92.4703C69.6122 91.657 70.3943 90.8138 71.2398 89.9683L72.1114 90.8399Z" fill="#2A73FC" mask="url(#path-10-inside-5)"/>
<mask id="path-12-inside-6" fill="white">
<path fill-rule="evenodd" clip-rule="evenodd" d="M153.159 123.102L150.108 126.153L139.457 116.321L138.123 117.655L130.932 111.336L93.2352 73.6387C90.8792 75.4609 88.9961 76.3725 88.4411 75.8175C87.5987 74.9751 90.1353 71.0728 94.1066 67.1014C98.078 63.13 101.98 60.5935 102.823 61.4359C103.378 61.9909 102.466 63.874 100.644 66.23L138.341 103.927L144.66 111.118L143.327 112.451L153.159 123.102Z"/>
</mask>
<path d="M150.108 126.153L150.544 126.589L150.125 127.008L149.69 126.606L150.108 126.153ZM153.159 123.102L153.612 122.684L154.013 123.119L153.595 123.538L153.159 123.102ZM139.457 116.321L139.021 115.885L139.44 115.467L139.875 115.868L139.457 116.321ZM138.123 117.655L138.559 118.091L138.15 118.499L137.716 118.118L138.123 117.655ZM130.932 111.336L130.526 111.799L130.511 111.786L130.497 111.772L130.932 111.336ZM93.2352 73.6387L92.8582 73.1512L93.2874 72.8192L93.671 73.2029L93.2352 73.6387ZM100.644 66.23L100.208 66.6658L99.8245 66.2821L100.156 65.8529L100.644 66.23ZM138.341 103.927L138.777 103.491L138.791 103.505L138.804 103.52L138.341 103.927ZM144.66 111.118L145.123 110.711L145.505 111.145L145.096 111.554L144.66 111.118ZM143.327 112.451L142.874 112.869L142.472 112.434L142.891 112.015L143.327 112.451ZM149.672 125.717L152.723 122.667L153.595 123.538L150.544 126.589L149.672 125.717ZM139.875 115.868L150.526 125.7L149.69 126.606L139.039 116.774L139.875 115.868ZM139.893 116.757L138.559 118.091L137.687 117.219L139.021 115.885L139.893 116.757ZM137.716 118.118L130.526 111.799L131.339 110.873L138.53 117.192L137.716 118.118ZM130.497 111.772L92.7994 74.0745L93.671 73.2029L131.368 110.9L130.497 111.772ZM93.6123 74.1262C92.4173 75.0505 91.316 75.765 90.4217 76.1789C89.9778 76.3843 89.5505 76.5321 89.1684 76.5792C88.799 76.6247 88.3411 76.5891 88.0053 76.2533L88.877 75.3817C88.8187 75.3235 88.8043 75.3821 89.0177 75.3558C89.2184 75.331 89.5132 75.2411 89.9039 75.0602C90.6789 74.7016 91.6971 74.0492 92.8582 73.1512L93.6123 74.1262ZM88.0053 76.2533C87.7509 75.9989 87.6689 75.6698 87.6636 75.3751C87.6584 75.0838 87.7252 74.7728 87.8276 74.4645C88.033 73.8458 88.4273 73.1041 88.952 72.2969C90.0069 70.6739 91.6642 68.6722 93.6708 66.6656L94.5425 67.5372C92.5777 69.5019 90.981 71.4371 89.9855 72.9687C89.4849 73.7388 89.1548 74.3789 88.9974 74.8529C88.9184 75.091 88.8943 75.2541 88.8961 75.3529C88.8978 75.4484 88.9208 75.4256 88.877 75.3817L88.0053 76.2533ZM93.6708 66.6656C95.6775 64.6589 97.6792 63.0017 99.3022 61.9467C100.109 61.422 100.851 61.0277 101.47 60.8223C101.778 60.72 102.089 60.6531 102.38 60.6583C102.675 60.6636 103.004 60.7456 103.259 61.0001L102.387 61.8717C102.431 61.9155 102.454 61.8925 102.358 61.8908C102.259 61.889 102.096 61.9131 101.858 61.9922C101.384 62.1495 100.744 62.4796 99.974 62.9802C98.4424 63.9758 96.5072 65.5725 94.5425 67.5372L93.6708 66.6656ZM103.259 61.0001C103.594 61.3358 103.63 61.7938 103.584 62.1631C103.537 62.5452 103.39 62.9725 103.184 63.4164C102.77 64.3108 102.056 65.4121 101.131 66.607L100.156 65.8529C101.054 64.6919 101.707 63.6736 102.066 62.8987C102.246 62.5079 102.336 62.2132 102.361 62.0124C102.387 61.799 102.329 61.8134 102.387 61.8717L103.259 61.0001ZM101.08 65.7941L138.777 103.491L137.905 104.363L100.208 66.6658L101.08 65.7941ZM138.804 103.52L145.123 110.711L144.197 111.525L137.878 104.334L138.804 103.52ZM145.096 111.554L143.763 112.887L142.891 112.015L144.224 110.682L145.096 111.554ZM152.706 123.52L142.874 112.869L143.78 112.033L153.612 122.684L152.706 123.52Z" fill="#2A73FC" mask="url(#path-12-inside-6)"/>
<mask id="path-14-inside-7" fill="white">
<path fill-rule="evenodd" clip-rule="evenodd" d="M92.2453 70.0056L57.5147 34.4382C56.2383 35.2523 55.133 35.5373 54.6656 35.0698C53.9435 34.3478 55.0167 32.1039 57.0625 30.058C59.1084 28.0122 61.3522 26.939 62.0743 27.6611C62.5418 28.1286 62.2568 29.2338 61.4426 30.5103L97.0101 65.2408C96.209 65.9308 95.3772 66.7023 94.5423 67.5372C93.7071 68.3723 92.9355 69.2044 92.2453 70.0056Z"/>
</mask>
<path d="M92.2453 70.0056L92.7123 70.4079L92.2738 70.9169L91.8043 70.4362L92.2453 70.0056ZM57.5147 34.4382L57.1833 33.9186L57.6057 33.6491L57.9557 34.0076L57.5147 34.4382ZM61.4426 30.5103L61.0121 30.9512L60.6536 30.6012L60.923 30.1788L61.4426 30.5103ZM97.0101 65.2408L97.4406 64.7998L97.9214 65.2692L97.4123 65.7077L97.0101 65.2408ZM91.8043 70.4362L57.0738 34.8688L57.9557 34.0076L92.6863 69.575L91.8043 70.4362ZM57.8462 34.9578C57.1754 35.3857 56.5135 35.6988 55.926 35.835C55.3692 35.9641 54.6953 35.9712 54.2298 35.5056L55.1014 34.634C55.1033 34.636 55.2158 34.7343 55.6476 34.6342C56.0487 34.5412 56.5776 34.3049 57.1833 33.9186L57.8462 34.9578ZM54.2298 35.5056C53.8691 35.1449 53.7943 34.6537 53.8339 34.2144C53.874 33.7706 54.0358 33.2843 54.2701 32.7944C54.7412 31.8093 55.5678 30.6811 56.6267 29.6222L57.4983 30.4938C56.5114 31.4808 55.7785 32.4975 55.3821 33.3263C55.1826 33.7433 55.0836 34.0813 55.0616 34.3252C55.0392 34.5736 55.101 34.6337 55.1014 34.634L54.2298 35.5056ZM56.6267 29.6222C57.6856 28.5633 58.8138 27.7367 59.7989 27.2656C60.2888 27.0313 60.7751 26.8695 61.2189 26.8295C61.6582 26.7898 62.1494 26.8646 62.5101 27.2253L61.6385 28.0969C61.6381 28.0966 61.5781 28.0347 61.3297 28.0571C61.0858 28.0791 60.7478 28.1781 60.3307 28.3776C59.502 28.774 58.4853 29.5069 57.4983 30.4938L56.6267 29.6222ZM62.5101 27.2253C62.9756 27.6908 62.9685 28.3647 62.8395 28.9215C62.7033 29.509 62.3901 30.1709 61.9623 30.8417L60.923 30.1788C61.3093 29.5732 61.5457 29.0442 61.6387 28.6431C61.7388 28.2113 61.6404 28.0988 61.6385 28.0969L62.5101 27.2253ZM61.8732 30.0693L97.4406 64.7998L96.5795 65.6818L61.0121 30.9512L61.8732 30.0693ZM97.4123 65.7077C96.6233 66.3874 95.8026 67.1484 94.9781 67.973L94.1065 67.1014C94.9517 66.2561 95.7947 65.4742 96.6078 64.7738L97.4123 65.7077ZM94.9781 67.973C94.1533 68.7978 93.392 69.6187 92.7123 70.4079L91.7783 69.6034C92.4789 68.7901 93.261 67.9469 94.1065 67.1014L94.9781 67.973Z" fill="#2A73FC" mask="url(#path-14-inside-7)"/>
<mask id="path-16-inside-8" fill="white">
<path fill-rule="evenodd" clip-rule="evenodd" d="M176.026 100.235L172.975 103.286L162.324 93.4543L160.99 94.7881L153.799 88.4689L116.102 50.7718C113.746 52.594 111.863 53.5056 111.308 52.9506C110.466 52.1082 113.002 48.2058 116.974 44.2345C120.945 40.2631 124.847 37.7266 125.69 38.569C126.245 39.124 125.333 41.0071 123.511 43.363L161.208 81.0602L167.527 88.251L166.194 89.5843L176.026 100.235Z"/>
</mask>
<path d="M172.975 103.286L173.411 103.722L172.992 104.141L172.557 103.739L172.975 103.286ZM176.026 100.235L176.479 99.8174L176.88 100.253L176.462 100.671L176.026 100.235ZM162.324 93.4543L161.888 93.0185L162.307 92.5998L162.742 93.0014L162.324 93.4543ZM160.99 94.7881L161.426 95.2239L161.017 95.6325L160.583 95.2511L160.99 94.7881ZM153.799 88.4689L153.392 88.9319L153.378 88.9188L153.363 88.9047L153.799 88.4689ZM116.102 50.7718L115.725 50.2843L116.154 49.9523L116.538 50.336L116.102 50.7718ZM123.511 43.363L123.075 43.7988L122.691 43.4152L123.023 42.986L123.511 43.363ZM161.208 81.0602L161.644 80.6244L161.658 80.6384L161.671 80.6533L161.208 81.0602ZM167.527 88.251L167.99 87.8442L168.372 88.2782L167.963 88.6868L167.527 88.251ZM166.194 89.5843L165.741 90.0024L165.339 89.5672L165.758 89.1485L166.194 89.5843ZM172.539 102.85L175.59 99.7996L176.462 100.671L173.411 103.722L172.539 102.85ZM162.742 93.0014L173.393 102.833L172.557 103.739L161.906 93.9072L162.742 93.0014ZM162.76 93.8901L161.426 95.2239L160.554 94.3523L161.888 93.0185L162.76 93.8901ZM160.583 95.2511L153.392 88.9319L154.206 88.0059L161.397 94.3251L160.583 95.2511ZM153.363 88.9047L115.666 51.2076L116.538 50.336L154.235 88.0331L153.363 88.9047ZM116.479 51.2593C115.284 52.1835 114.183 52.898 113.289 53.312C112.845 53.5174 112.417 53.6652 112.035 53.7123C111.666 53.7577 111.208 53.7221 110.872 53.3864L111.744 52.5148C111.686 52.4566 111.671 52.5151 111.885 52.4889C112.085 52.4641 112.38 52.3742 112.771 52.1933C113.546 51.8347 114.564 51.1822 115.725 50.2843L116.479 51.2593ZM110.872 53.3864C110.618 53.132 110.536 52.8029 110.531 52.5082C110.525 52.2168 110.592 51.9059 110.695 51.5976C110.9 50.9788 111.294 50.2372 111.819 49.43C112.874 47.807 114.531 45.8053 116.538 43.7987L117.409 44.6703C115.445 46.635 113.848 48.5702 112.852 50.1018C112.352 50.8719 112.022 51.512 111.864 51.986C111.785 52.2241 111.761 52.3872 111.763 52.486C111.765 52.5815 111.788 52.5586 111.744 52.5148L110.872 53.3864ZM116.538 43.7987C118.544 41.792 120.546 40.1347 122.169 39.0798C122.976 38.5551 123.718 38.1608 124.337 37.9554C124.645 37.8531 124.956 37.7862 125.247 37.7914C125.542 37.7967 125.871 37.8787 126.126 38.1332L125.254 39.0048C125.298 39.0486 125.321 39.0256 125.225 39.0239C125.126 39.0221 124.963 39.0462 124.725 39.1253C124.251 39.2826 123.611 39.6127 122.841 40.1133C121.309 41.1088 119.374 42.7056 117.409 44.6703L116.538 43.7987ZM126.126 38.1332C126.461 38.4689 126.497 38.9269 126.451 39.2962C126.404 39.6783 126.257 40.1056 126.051 40.5495C125.637 41.4438 124.923 42.5451 123.998 43.7401L123.023 42.986C123.921 41.825 124.574 40.8067 124.932 40.0318C125.113 39.641 125.203 39.3463 125.228 39.1455C125.254 38.9321 125.196 38.9465 125.254 39.0048L126.126 38.1332ZM123.947 42.9272L161.644 80.6244L160.772 81.496L123.075 43.7988L123.947 42.9272ZM161.671 80.6533L167.99 87.8442L167.064 88.6578L160.745 81.467L161.671 80.6533ZM167.963 88.6868L166.63 90.0201L165.758 89.1485L167.091 87.8152L167.963 88.6868ZM175.573 100.653L165.741 90.0024L166.647 89.1663L176.479 99.8174L175.573 100.653Z" fill="#2A73FC" mask="url(#path-16-inside-8)"/>
<mask id="path-18-inside-9" fill="white">
<path fill-rule="evenodd" clip-rule="evenodd" d="M115.112 47.1387L80.3817 11.5713C79.1052 12.3854 78 12.6704 77.5325 12.2029C76.8105 11.4808 77.8836 9.23699 79.9295 7.19113C81.9753 5.14527 84.2192 4.07212 84.9412 4.79419C85.4087 5.26165 85.1238 6.36691 84.3096 7.64335L119.877 42.3739C119.076 43.0639 118.244 43.8354 117.409 44.6703C116.574 45.5054 115.802 46.3375 115.112 47.1387Z"/>
</mask>
<path d="M115.112 47.1387L115.579 47.541L115.141 48.05L114.671 47.5693L115.112 47.1387ZM80.3817 11.5713L80.0502 11.0516L80.4726 10.7822L80.8226 11.1407L80.3817 11.5713ZM84.3096 7.64335L83.879 8.08431L83.5206 7.7343L83.79 7.31191L84.3096 7.64335ZM119.877 42.3739L120.308 41.9329L120.788 42.4023L120.279 42.8408L119.877 42.3739ZM114.671 47.5693L79.9407 12.0018L80.8226 11.1407L115.553 46.7081L114.671 47.5693ZM80.7131 12.0909C80.0423 12.5187 79.3804 12.8319 78.7929 12.9681C78.2361 13.0972 77.5622 13.1042 77.0967 12.6387L77.9683 11.7671C77.9703 11.769 78.0827 11.8674 78.5146 11.7673C78.9156 11.6743 79.4446 11.438 80.0502 11.0516L80.7131 12.0909ZM77.0967 12.6387C76.736 12.278 76.6612 11.7868 76.7009 11.3475C76.7409 10.9037 76.9027 10.4174 77.137 9.92753C77.6081 8.94241 78.4348 7.81422 79.4937 6.75532L80.3653 7.62694C79.3783 8.6139 78.6454 9.63057 78.249 10.4594C78.0496 10.8764 77.9506 11.2144 77.9285 11.4583C77.9061 11.7067 77.968 11.7668 77.9683 11.7671L77.0967 12.6387ZM79.4937 6.75532C80.5525 5.69642 81.6807 4.86982 82.6659 4.39868C83.1558 4.16438 83.642 4.00261 84.0858 3.96256C84.5251 3.92291 85.0164 3.99769 85.3771 4.35838L84.5054 5.23C84.5051 5.22965 84.4451 5.1678 84.1966 5.19022C83.9527 5.21223 83.6147 5.31123 83.1977 5.51069C82.3689 5.90707 81.3522 6.63997 80.3653 7.62694L79.4937 6.75532ZM85.3771 4.35838C85.8426 4.82391 85.8355 5.49781 85.7064 6.05457C85.5702 6.64212 85.2571 7.304 84.8292 7.97479L83.79 7.31191C84.1763 6.70626 84.4127 6.17729 84.5056 5.77623C84.6057 5.3444 84.5074 5.23193 84.5054 5.23L85.3771 4.35838ZM84.7402 7.20238L120.308 41.9329L119.446 42.8148L83.879 8.08431L84.7402 7.20238ZM120.279 42.8408C119.49 43.5205 118.67 44.2815 117.845 45.1061L116.973 44.2345C117.819 43.3892 118.662 42.6073 119.475 41.9069L120.279 42.8408ZM117.845 45.1061C117.02 45.9309 116.259 46.7518 115.579 47.541L114.645 46.7365C115.346 45.9232 116.128 45.08 116.973 44.2345L117.845 45.1061Z" fill="#2A73FC" mask="url(#path-18-inside-9)"/>
<mask id="path-20-outside-10" maskUnits="userSpaceOnUse" x="254.835" y="93.9876" width="89" height="70" fill="black">
<rect fill="white" x="254.835" y="93.9876" width="89" height="70"/>
<path fill-rule="evenodd" clip-rule="evenodd" d="M324.371 162.988C321.237 162.988 318.601 160.635 318.247 157.521L315.504 133.404H340.329L342.933 157.528C343.247 160.444 340.963 162.988 338.031 162.988H324.371ZM255.854 157.629C255.603 160.51 257.874 162.987 260.766 162.987H274.423C277.606 162.987 280.265 160.564 280.56 157.394L282.789 133.404H282.791C284.236 125.686 291.009 119.845 299.146 119.845C307.284 119.845 314.057 125.686 315.502 133.404H340.327C338.751 112.037 320.916 95.1919 299.146 95.1919C277.377 95.1919 259.542 112.037 257.966 133.404H257.964L255.854 157.629Z"/>
</mask>
<path d="M318.247 157.521L317.635 157.591L317.635 157.591L318.247 157.521ZM315.504 133.404L314.891 133.474L314.813 132.788H315.504V133.404ZM340.329 133.404V132.788H340.883L340.942 133.338L340.329 133.404ZM342.933 157.528L342.32 157.594L342.32 157.594L342.933 157.528ZM255.854 157.629L255.24 157.576L255.854 157.629ZM280.56 157.394L281.174 157.451L281.174 157.451L280.56 157.394ZM282.789 133.404L282.175 133.347L282.227 132.788H282.789V133.404ZM282.791 133.404L283.396 133.517L283.302 134.02H282.791V133.404ZM315.502 133.404V134.02H314.991L314.897 133.517L315.502 133.404ZM340.327 133.404L340.942 133.359L340.99 134.02H340.327V133.404ZM257.966 133.404L258.581 133.449L258.539 134.02H257.966V133.404ZM257.964 133.404L257.35 133.35L257.399 132.788H257.964V133.404ZM318.859 157.451C319.178 160.254 321.55 162.371 324.371 162.371V163.604C320.923 163.604 318.024 161.016 317.635 157.591L318.859 157.451ZM316.116 133.334L318.859 157.451L317.635 157.591L314.891 133.474L316.116 133.334ZM340.329 134.02H315.504V132.788H340.329V134.02ZM342.32 157.594L339.717 133.47L340.942 133.338L343.546 157.462L342.32 157.594ZM338.031 162.371C340.597 162.371 342.595 160.145 342.32 157.594L343.546 157.462C343.899 160.742 341.33 163.604 338.031 163.604V162.371ZM324.371 162.371H338.031V163.604H324.371V162.371ZM260.766 163.604C257.513 163.604 254.958 160.817 255.24 157.576L256.468 157.683C256.248 160.203 258.236 162.371 260.766 162.371V163.604ZM274.423 163.604H260.766V162.371H274.423V163.604ZM281.174 157.451C280.85 160.938 277.924 163.604 274.423 163.604V162.371C277.288 162.371 279.681 160.19 279.946 157.337L281.174 157.451ZM283.403 133.461L281.174 157.451L279.946 157.337L282.175 133.347L283.403 133.461ZM282.791 134.02H282.789V132.788H282.791V134.02ZM299.146 120.461C291.311 120.461 284.788 126.086 283.396 133.517L282.185 133.291C283.683 125.286 290.707 119.229 299.146 119.229V120.461ZM314.897 133.517C313.505 126.086 306.982 120.461 299.146 120.461V119.229C307.586 119.229 314.61 125.286 316.108 133.291L314.897 133.517ZM340.327 134.02H315.502V132.788H340.327V134.02ZM299.146 94.5755C321.241 94.5755 339.342 111.672 340.942 133.359L339.712 133.449C338.16 112.402 320.591 95.8082 299.146 95.8082V94.5755ZM257.351 133.358C258.951 111.672 277.052 94.5755 299.146 94.5755V95.8082C277.702 95.8082 260.133 112.402 258.581 133.449L257.351 133.358ZM257.964 132.788H257.966V134.02H257.964V132.788ZM255.24 157.576L257.35 133.35L258.578 133.457L256.468 157.683L255.24 157.576Z" fill="#2A73FC" mask="url(#path-20-outside-10)"/>
<mask id="path-22-inside-11" fill="white">
<path fill-rule="evenodd" clip-rule="evenodd" d="M338.957 112.367C331.151 98.4407 316.248 89.0285 299.147 89.0285C282.077 89.0285 267.198 98.4057 259.379 112.29L263.945 114.886C271.211 103.07 284.258 95.1916 299.146 95.1916C314.088 95.1916 327.176 103.127 334.426 115.013L338.957 112.367Z"/>
</mask>
<path d="M338.957 112.367L339.495 112.066L339.791 112.594L339.268 112.899L338.957 112.367ZM259.379 112.29L259.074 112.825L258.541 112.522L258.842 111.987L259.379 112.29ZM263.945 114.886L264.47 115.209L264.158 115.716L263.64 115.422L263.945 114.886ZM334.426 115.013L334.736 115.546L334.214 115.851L333.899 115.334L334.426 115.013ZM299.147 88.4122C316.48 88.4122 331.584 97.9527 339.495 112.066L338.42 112.669C330.718 98.9286 316.016 89.6449 299.147 89.6449V88.4122ZM258.842 111.987C266.766 97.9172 281.846 88.4122 299.147 88.4122V89.6449C282.309 89.6449 267.63 98.8941 259.916 112.592L258.842 111.987ZM259.684 111.754L264.25 114.35L263.64 115.422L259.074 112.825L259.684 111.754ZM263.42 114.563C270.793 102.573 284.035 94.5752 299.146 94.5752V95.8079C284.481 95.8079 271.628 103.568 264.47 115.209L263.42 114.563ZM299.146 94.5752C314.311 94.5752 327.595 102.63 334.952 114.692L333.899 115.334C326.757 103.624 313.864 95.8079 299.146 95.8079V94.5752ZM334.115 114.481L338.647 111.835L339.268 112.899L334.736 115.546L334.115 114.481Z" fill="#2A73FC" mask="url(#path-22-inside-11)"/>
<mask id="path-24-outside-12" maskUnits="userSpaceOnUse" x="256.853" y="18.407" width="85" height="78" fill="black">
<rect fill="white" x="256.853" y="18.407" width="85" height="78"/>
<path fill-rule="evenodd" clip-rule="evenodd" d="M275.87 95.4069C264.992 87.9701 257.853 75.4657 257.853 61.2938C257.853 38.4879 276.34 20 299.146 20C321.952 20 340.44 38.4879 340.44 61.2938C340.44 75.4657 333.301 87.9701 322.423 95.407C315.609 91.3552 307.649 89.0283 299.146 89.0283C290.643 89.0283 282.684 91.3552 275.87 95.4069Z"/>
</mask>
<path d="M275.87 95.4069L276.185 95.9367L275.847 96.1377L275.522 95.9157L275.87 95.4069ZM322.423 95.407L322.771 95.9157L322.446 96.1377L322.108 95.9367L322.423 95.407ZM258.469 61.2938C258.469 75.2536 265.5 87.5713 276.218 94.8981L275.522 95.9157C264.483 88.3689 257.236 75.6777 257.236 61.2938H258.469ZM299.146 20.6163C276.681 20.6163 258.469 38.8283 258.469 61.2938H257.236C257.236 38.1475 276 19.3837 299.146 19.3837V20.6163ZM339.824 61.2938C339.824 38.8283 321.612 20.6163 299.146 20.6163V19.3837C322.293 19.3837 341.056 38.1475 341.056 61.2938H339.824ZM322.075 94.8982C332.792 87.5713 339.824 75.2536 339.824 61.2938H341.056C341.056 75.6778 333.81 88.369 322.771 95.9157L322.075 94.8982ZM322.108 95.9367C315.386 91.94 307.535 89.6446 299.146 89.6446V88.412C307.763 88.412 315.831 90.7703 322.738 94.8772L322.108 95.9367ZM299.146 89.6446C290.757 89.6446 282.906 91.94 276.185 95.9367L275.555 94.8772C282.461 90.7703 290.529 88.412 299.146 88.412V89.6446Z" fill="#2A73FC" mask="url(#path-24-outside-12)"/>
<circle cx="299.146" cy="61.2937" r="10.7857" stroke="#2A73FC" stroke-width="0.616325"/>
<mask id="path-27-inside-13" fill="white">
<path fill-rule="evenodd" clip-rule="evenodd" d="M170.557 236.568L167.506 239.619L177.338 250.27L176.004 251.604L182.323 258.794L220.02 296.491C218.198 298.847 217.287 300.731 217.842 301.286C218.684 302.128 222.586 299.591 226.558 295.62C230.529 291.649 233.066 287.746 232.223 286.904C231.668 286.349 229.785 287.261 227.429 289.083L189.732 251.386L182.541 245.066L181.208 246.4L170.557 236.568Z"/>
</mask>
<path d="M167.506 239.619L167.07 239.183L166.652 239.602L167.053 240.037L167.506 239.619ZM170.557 236.568L170.975 236.115L170.54 235.713L170.121 236.132L170.557 236.568ZM177.338 250.27L177.774 250.706L178.192 250.287L177.791 249.852L177.338 250.27ZM176.004 251.604L175.568 251.168L175.16 251.576L175.541 252.01L176.004 251.604ZM182.323 258.794L181.86 259.201L181.873 259.216L181.887 259.23L182.323 258.794ZM220.02 296.491L220.508 296.869L220.84 296.439L220.456 296.056L220.02 296.491ZM227.429 289.083L226.993 289.519L227.377 289.902L227.806 289.57L227.429 289.083ZM189.732 251.386L190.168 250.95L190.154 250.936L190.139 250.923L189.732 251.386ZM182.541 245.066L182.948 244.603L182.514 244.222L182.105 244.631L182.541 245.066ZM181.208 246.4L180.79 246.853L181.225 247.254L181.644 246.836L181.208 246.4ZM167.942 240.054L170.993 237.004L170.121 236.132L167.07 239.183L167.942 240.054ZM177.791 249.852L167.959 239.201L167.053 240.037L176.885 250.688L177.791 249.852ZM176.902 249.834L175.568 251.168L176.44 252.039L177.774 250.706L176.902 249.834ZM175.541 252.01L181.86 259.201L182.786 258.388L176.467 251.197L175.541 252.01ZM181.887 259.23L219.585 296.927L220.456 296.056L182.759 258.359L181.887 259.23ZM219.533 296.114C218.609 297.309 217.894 298.411 217.48 299.305C217.275 299.749 217.127 300.176 217.08 300.558C217.034 300.928 217.07 301.386 217.406 301.721L218.277 300.85C218.336 300.908 218.277 300.922 218.303 300.709C218.328 300.508 218.418 300.214 218.599 299.823C218.958 299.048 219.61 298.03 220.508 296.869L219.533 296.114ZM217.406 301.721C217.66 301.976 217.989 302.058 218.284 302.063C218.575 302.068 218.886 302.001 219.195 301.899C219.813 301.694 220.555 301.299 221.362 300.775C222.985 299.72 224.987 298.063 226.994 296.056L226.122 295.184C224.157 297.149 222.222 298.746 220.69 299.741C219.92 300.242 219.28 300.572 218.806 300.729C218.568 300.808 218.405 300.832 218.306 300.831C218.211 300.829 218.234 300.806 218.277 300.85L217.406 301.721ZM226.994 296.056C229 294.049 230.657 292.048 231.712 290.425C232.237 289.617 232.631 288.876 232.837 288.257C232.939 287.949 233.006 287.638 233.001 287.346C232.995 287.052 232.913 286.723 232.659 286.468L231.787 287.34C231.744 287.296 231.767 287.273 231.768 287.369C231.77 287.467 231.746 287.63 231.667 287.869C231.51 288.343 231.179 288.983 230.679 289.753C229.683 291.284 228.087 293.22 226.122 295.184L226.994 296.056ZM232.659 286.468C232.323 286.132 231.865 286.097 231.496 286.142C231.114 286.189 230.687 286.337 230.243 286.543C229.348 286.956 228.247 287.671 227.052 288.595L227.806 289.57C228.967 288.672 229.985 288.02 230.76 287.661C231.151 287.48 231.446 287.39 231.647 287.366C231.86 287.339 231.846 287.398 231.787 287.34L232.659 286.468ZM227.865 288.647L190.168 250.95L189.296 251.821L226.993 289.519L227.865 288.647ZM190.139 250.923L182.948 244.603L182.134 245.529L189.325 251.849L190.139 250.923ZM182.105 244.631L180.772 245.964L181.644 246.836L182.977 245.502L182.105 244.631ZM170.139 237.021L180.79 246.853L181.626 245.947L170.975 236.115L170.139 237.021Z" fill="#2A73FC" mask="url(#path-27-inside-13)"/>
<mask id="path-29-inside-14" fill="white">
<path fill-rule="evenodd" clip-rule="evenodd" d="M223.654 297.481L259.221 332.212C258.407 333.488 258.122 334.594 258.589 335.061C259.311 335.783 261.555 334.71 263.601 332.664C265.647 330.618 266.72 328.374 265.998 327.652C265.531 327.185 264.425 327.47 263.149 328.284L228.418 292.717C227.728 293.518 226.957 294.349 226.122 295.184C225.287 296.019 224.455 296.791 223.654 297.481Z"/>
</mask>
<path d="M223.654 297.481L223.251 297.014L222.742 297.453L223.223 297.922L223.654 297.481ZM259.221 332.212L259.741 332.543L260.01 332.121L259.652 331.771L259.221 332.212ZM263.149 328.284L262.708 328.715L263.058 329.073L263.48 328.804L263.149 328.284ZM228.418 292.717L228.859 292.286L228.39 291.805L227.951 292.314L228.418 292.717ZM223.223 297.922L258.79 332.653L259.652 331.771L224.084 297.04L223.223 297.922ZM258.701 331.88C258.273 332.551 257.96 333.213 257.824 333.801C257.695 334.357 257.688 335.031 258.153 335.497L259.025 334.625C259.023 334.623 258.925 334.511 259.025 334.079C259.118 333.678 259.354 333.149 259.741 332.543L258.701 331.88ZM258.153 335.497C258.514 335.858 259.005 335.932 259.445 335.893C259.889 335.853 260.375 335.691 260.865 335.457C261.85 334.985 262.978 334.159 264.037 333.1L263.165 332.228C262.178 333.215 261.162 333.948 260.333 334.345C259.916 334.544 259.578 334.643 259.334 334.665C259.085 334.687 259.025 334.626 259.025 334.625L258.153 335.497ZM264.037 333.1C265.096 332.041 265.922 330.913 266.394 329.928C266.628 329.438 266.79 328.952 266.83 328.508C266.869 328.068 266.795 327.577 266.434 327.217L265.562 328.088C265.563 328.088 265.624 328.149 265.602 328.397C265.58 328.641 265.481 328.979 265.282 329.396C264.885 330.225 264.152 331.241 263.165 332.228L264.037 333.1ZM266.434 327.217C265.968 326.751 265.294 326.758 264.738 326.887C264.15 327.023 263.488 327.336 262.817 327.764L263.48 328.804C264.086 328.417 264.615 328.181 265.016 328.088C265.448 327.988 265.56 328.086 265.562 328.088L266.434 327.217ZM263.59 327.853L228.859 292.286L227.977 293.147L262.708 328.715L263.59 327.853ZM227.951 292.314C227.272 293.103 226.511 293.924 225.686 294.749L226.558 295.62C227.403 294.775 228.185 293.932 228.885 293.119L227.951 292.314ZM225.686 294.749C224.861 295.573 224.04 296.335 223.251 297.014L224.056 297.948C224.869 297.248 225.712 296.466 226.558 295.62L225.686 294.749Z" fill="#2A73FC" mask="url(#path-29-inside-14)"/>
<mask id="path-31-inside-15" fill="white">
<path fill-rule="evenodd" clip-rule="evenodd" d="M193.424 213.701L190.373 216.752L200.205 227.403L198.871 228.737L205.19 235.927L242.887 273.625C241.065 275.981 240.154 277.864 240.709 278.419C241.551 279.261 245.453 276.725 249.425 272.753C253.396 268.782 255.933 264.879 255.09 264.037C254.535 263.482 252.652 264.394 250.296 266.216L212.599 228.519L205.408 222.199L204.075 223.533L193.424 213.701Z"/>
</mask>
<path d="M190.373 216.752L189.937 216.316L189.518 216.735L189.92 217.17L190.373 216.752ZM193.424 213.701L193.842 213.248L193.407 212.846L192.988 213.265L193.424 213.701ZM200.205 227.403L200.641 227.839L201.059 227.42L200.658 226.985L200.205 227.403ZM198.871 228.737L198.435 228.301L198.027 228.709L198.408 229.143L198.871 228.737ZM205.19 235.927L204.727 236.334L204.74 236.349L204.754 236.363L205.19 235.927ZM242.887 273.625L243.375 274.002L243.707 273.572L243.323 273.189L242.887 273.625ZM250.296 266.216L249.86 266.652L250.244 267.035L250.673 266.703L250.296 266.216ZM212.599 228.519L213.035 228.083L213.021 228.069L213.006 228.056L212.599 228.519ZM205.408 222.199L205.815 221.737L205.381 221.355L204.972 221.764L205.408 222.199ZM204.075 223.533L203.657 223.986L204.092 224.387L204.511 223.969L204.075 223.533ZM190.809 217.187L193.859 214.137L192.988 213.265L189.937 216.316L190.809 217.187ZM200.658 226.985L190.826 216.334L189.92 217.17L199.752 227.821L200.658 226.985ZM199.769 226.967L198.435 228.301L199.307 229.172L200.641 227.839L199.769 226.967ZM198.408 229.143L204.727 236.334L205.653 235.521L199.334 228.33L198.408 229.143ZM204.754 236.363L242.452 274.06L243.323 273.189L205.626 235.492L204.754 236.363ZM242.4 273.247C241.476 274.442 240.761 275.544 240.347 276.438C240.142 276.882 239.994 277.309 239.947 277.691C239.901 278.061 239.937 278.519 240.273 278.854L241.144 277.983C241.203 278.041 241.144 278.056 241.17 277.842C241.195 277.641 241.285 277.347 241.466 276.956C241.824 276.181 242.477 275.163 243.375 274.002L242.4 273.247ZM240.273 278.854C240.527 279.109 240.856 279.191 241.151 279.196C241.442 279.201 241.753 279.135 242.062 279.032C242.68 278.827 243.422 278.432 244.229 277.908C245.852 276.853 247.854 275.196 249.86 273.189L248.989 272.317C247.024 274.282 245.089 275.879 243.557 276.874C242.787 277.375 242.147 277.705 241.673 277.862C241.435 277.941 241.272 277.965 241.173 277.964C241.078 277.962 241.1 277.939 241.144 277.983L240.273 278.854ZM249.86 273.189C251.867 271.182 253.524 269.181 254.579 267.558C255.104 266.75 255.498 266.009 255.704 265.39C255.806 265.082 255.873 264.771 255.868 264.479C255.862 264.185 255.78 263.856 255.526 263.601L254.654 264.473C254.611 264.429 254.634 264.406 254.635 264.502C254.637 264.6 254.613 264.764 254.534 265.002C254.377 265.476 254.046 266.116 253.546 266.886C252.55 268.417 250.954 270.353 248.989 272.317L249.86 273.189ZM255.526 263.601C255.19 263.265 254.732 263.23 254.363 263.275C253.981 263.322 253.553 263.47 253.11 263.676C252.215 264.09 251.114 264.804 249.919 265.728L250.673 266.703C251.834 265.805 252.852 265.153 253.627 264.794C254.018 264.613 254.313 264.523 254.514 264.499C254.727 264.472 254.713 264.531 254.654 264.473L255.526 263.601ZM250.732 265.78L213.035 228.083L212.163 228.954L249.86 266.652L250.732 265.78ZM213.006 228.056L205.815 221.737L205.001 222.662L212.192 228.982L213.006 228.056ZM204.972 221.764L203.639 223.097L204.511 223.969L205.844 222.635L204.972 221.764ZM193.006 214.154L203.657 223.986L204.493 223.08L193.842 213.248L193.006 214.154Z" fill="#2A73FC" mask="url(#path-31-inside-15)"/>
<mask id="path-33-inside-16" fill="white">
<path fill-rule="evenodd" clip-rule="evenodd" d="M246.52 274.614L282.088 309.345C281.274 310.621 280.989 311.727 281.456 312.194C282.178 312.916 284.422 311.843 286.468 309.797C288.514 307.751 289.587 305.507 288.865 304.785C288.398 304.318 287.292 304.603 286.016 305.417L251.285 269.85C250.595 270.651 249.824 271.482 248.989 272.317C248.154 273.153 247.322 273.924 246.52 274.614Z"/>
</mask>
<path d="M246.52 274.614L246.118 274.147L245.609 274.586L246.09 275.055L246.52 274.614ZM282.088 309.345L282.608 309.676L282.877 309.254L282.518 308.904L282.088 309.345ZM286.016 305.417L285.575 305.848L285.925 306.206L286.347 305.937L286.016 305.417ZM251.285 269.85L251.726 269.419L251.257 268.938L250.818 269.447L251.285 269.85ZM246.09 275.055L281.657 309.786L282.518 308.904L246.951 274.173L246.09 275.055ZM281.568 309.014C281.14 309.684 280.827 310.346 280.691 310.934C280.562 311.49 280.555 312.164 281.02 312.63L281.892 311.758C281.89 311.756 281.792 311.644 281.892 311.212C281.985 310.811 282.221 310.282 282.608 309.676L281.568 309.014ZM281.02 312.63C281.381 312.991 281.872 313.065 282.312 313.026C282.755 312.986 283.242 312.824 283.732 312.59C284.717 312.118 285.845 311.292 286.904 310.233L286.032 309.361C285.045 310.348 284.029 311.081 283.2 311.478C282.783 311.677 282.445 311.776 282.201 311.798C281.952 311.82 281.892 311.759 281.892 311.758L281.02 312.63ZM286.904 310.233C287.963 309.174 288.789 308.046 289.26 307.061C289.495 306.571 289.657 306.085 289.697 305.641C289.736 305.201 289.661 304.71 289.301 304.35L288.429 305.221C288.43 305.222 288.491 305.282 288.469 305.53C288.447 305.774 288.348 306.112 288.148 306.529C287.752 307.358 287.019 308.374 286.032 309.361L286.904 310.233ZM289.301 304.35C288.835 303.884 288.161 303.891 287.605 304.02C287.017 304.156 286.355 304.47 285.684 304.897L286.347 305.937C286.953 305.55 287.482 305.314 287.883 305.221C288.315 305.121 288.427 305.219 288.429 305.221L289.301 304.35ZM286.457 304.986L251.726 269.419L250.844 270.28L285.575 305.848L286.457 304.986ZM250.818 269.447C250.139 270.236 249.378 271.057 248.553 271.882L249.425 272.753C250.27 271.908 251.052 271.065 251.752 270.252L250.818 269.447ZM248.553 271.882C247.728 272.706 246.907 273.468 246.118 274.147L246.923 275.081C247.736 274.381 248.579 273.599 249.425 272.753L248.553 271.882Z" fill="#2A73FC" mask="url(#path-33-inside-16)"/>
<mask id="path-35-inside-17" fill="white">
<path fill-rule="evenodd" clip-rule="evenodd" d="M216.291 190.834L213.24 193.885L223.072 204.536L221.738 205.87L228.057 213.06L265.754 250.758C263.932 253.114 263.02 254.997 263.575 255.552C264.418 256.394 268.32 253.858 272.292 249.886C276.263 245.915 278.8 242.012 277.957 241.17C277.402 240.615 275.519 241.527 273.163 243.349L235.466 205.652L228.275 199.333L226.942 200.666L216.291 190.834Z"/>
</mask>
<path d="M213.24 193.885L212.804 193.449L212.385 193.868L212.787 194.303L213.24 193.885ZM216.291 190.834L216.709 190.381L216.274 189.98L215.855 190.398L216.291 190.834ZM223.072 204.536L223.508 204.972L223.926 204.553L223.525 204.118L223.072 204.536ZM221.738 205.87L221.302 205.434L220.894 205.842L221.275 206.277L221.738 205.87ZM228.057 213.06L227.594 213.467L227.607 213.482L227.621 213.496L228.057 213.06ZM265.754 250.758L266.242 251.135L266.574 250.706L266.19 250.322L265.754 250.758ZM273.163 243.349L272.727 243.785L273.111 244.168L273.54 243.836L273.163 243.349ZM235.466 205.652L235.902 205.216L235.888 205.202L235.873 205.189L235.466 205.652ZM228.275 199.333L228.682 198.87L228.248 198.488L227.839 198.897L228.275 199.333ZM226.942 200.666L226.524 201.119L226.959 201.52L227.378 201.102L226.942 200.666ZM213.676 194.321L216.726 191.27L215.855 190.398L212.804 193.449L213.676 194.321ZM223.525 204.118L213.693 193.467L212.787 194.303L222.619 204.954L223.525 204.118ZM222.636 204.1L221.302 205.434L222.174 206.305L223.508 204.972L222.636 204.1ZM221.275 206.277L227.594 213.467L228.52 212.654L222.201 205.463L221.275 206.277ZM227.621 213.496L265.318 251.193L266.19 250.322L228.493 212.625L227.621 213.496ZM265.267 250.381C264.343 251.576 263.628 252.677 263.214 253.571C263.009 254.015 262.861 254.442 262.814 254.824C262.768 255.194 262.804 255.652 263.14 255.988L264.011 255.116C264.07 255.174 264.011 255.189 264.037 254.975C264.062 254.774 264.152 254.48 264.333 254.089C264.691 253.314 265.344 252.296 266.242 251.135L265.267 250.381ZM263.14 255.988C263.394 256.242 263.723 256.324 264.018 256.329C264.309 256.334 264.62 256.268 264.928 256.165C265.547 255.96 266.289 255.566 267.096 255.041C268.719 253.986 270.721 252.329 272.727 250.322L271.856 249.45C269.891 251.415 267.956 253.012 266.424 254.007C265.654 254.508 265.014 254.838 264.54 254.995C264.302 255.074 264.139 255.099 264.04 255.097C263.945 255.095 263.967 255.072 264.011 255.116L263.14 255.988ZM272.727 250.322C274.734 248.315 276.391 246.314 277.446 244.691C277.971 243.883 278.365 243.142 278.571 242.523C278.673 242.215 278.74 241.904 278.735 241.612C278.729 241.318 278.647 240.989 278.393 240.734L277.521 241.606C277.477 241.562 277.5 241.539 277.502 241.635C277.504 241.733 277.48 241.897 277.401 242.135C277.243 242.609 276.913 243.249 276.413 244.019C275.417 245.55 273.821 247.486 271.856 249.45L272.727 250.322ZM278.393 240.734C278.057 240.399 277.599 240.363 277.23 240.408C276.848 240.455 276.42 240.603 275.977 240.809C275.082 241.223 273.981 241.937 272.786 242.861L273.54 243.836C274.701 242.938 275.719 242.286 276.494 241.927C276.885 241.746 277.18 241.657 277.381 241.632C277.594 241.606 277.58 241.664 277.521 241.606L278.393 240.734ZM273.599 242.913L235.902 205.216L235.03 206.088L272.727 243.785L273.599 242.913ZM235.873 205.189L228.682 198.87L227.868 199.796L235.059 206.115L235.873 205.189ZM227.839 198.897L226.506 200.23L227.378 201.102L228.711 199.768L227.839 198.897ZM215.873 191.287L226.524 201.119L227.36 200.213L216.709 190.381L215.873 191.287Z" fill="#2A73FC" mask="url(#path-35-inside-17)"/>
<mask id="path-37-inside-18" fill="white">
<path fill-rule="evenodd" clip-rule="evenodd" d="M269.387 251.747L304.955 286.478C304.141 287.754 303.856 288.86 304.323 289.327C305.045 290.049 307.289 288.976 309.335 286.93C311.381 284.884 312.454 282.641 311.732 281.918C311.264 281.451 310.159 281.736 308.883 282.55L274.152 246.983C273.462 247.784 272.691 248.616 271.856 249.45C271.021 250.286 270.189 251.057 269.387 251.747Z"/>
</mask>
<path d="M269.387 251.747L268.985 251.28L268.476 251.719L268.957 252.188L269.387 251.747ZM304.955 286.478L305.474 286.809L305.744 286.387L305.385 286.037L304.955 286.478ZM308.883 282.55L308.442 282.981L308.792 283.339L309.214 283.07L308.883 282.55ZM274.152 246.983L274.593 246.552L274.124 246.071L273.685 246.58L274.152 246.983ZM268.957 252.188L304.524 286.919L305.385 286.037L269.818 251.306L268.957 252.188ZM304.435 286.147C304.007 286.817 303.694 287.479 303.558 288.067C303.429 288.624 303.422 289.297 303.887 289.763L304.759 288.891C304.757 288.889 304.659 288.777 304.759 288.345C304.852 287.944 305.088 287.415 305.474 286.809L304.435 286.147ZM303.887 289.763C304.248 290.124 304.739 290.198 305.179 290.159C305.622 290.119 306.109 289.957 306.599 289.723C307.584 289.252 308.712 288.425 309.771 287.366L308.899 286.494C307.912 287.481 306.896 288.214 306.067 288.611C305.65 288.81 305.312 288.909 305.068 288.931C304.819 288.954 304.759 288.892 304.759 288.891L303.887 289.763ZM309.771 287.366C310.83 286.307 311.656 285.179 312.127 284.194C312.362 283.704 312.523 283.218 312.564 282.774C312.603 282.335 312.528 281.843 312.168 281.483L311.296 282.354C311.296 282.355 311.358 282.415 311.336 282.663C311.314 282.907 311.215 283.245 311.015 283.662C310.619 284.491 309.886 285.507 308.899 286.494L309.771 287.366ZM312.168 281.483C311.702 281.017 311.028 281.024 310.472 281.153C309.884 281.289 309.222 281.603 308.551 282.031L309.214 283.07C309.82 282.683 310.349 282.447 310.75 282.354C311.182 282.254 311.294 282.352 311.296 282.354L312.168 281.483ZM309.324 282.12L274.593 246.552L273.711 247.413L308.442 282.981L309.324 282.12ZM273.685 246.58C273.006 247.369 272.245 248.19 271.42 249.015L272.292 249.886C273.137 249.041 273.919 248.198 274.619 247.385L273.685 246.58ZM271.42 249.015C270.595 249.839 269.774 250.601 268.985 251.28L269.79 252.214C270.603 251.514 271.446 250.732 272.292 249.886L271.42 249.015Z" fill="#2A73FC" mask="url(#path-37-inside-18)"/>
</svg>
