<?xml version="1.0" encoding="UTF-8"?>
<svg width="396px" height="42px" viewBox="0 0 396 42" version="1.1" xmlns="http://www.w3.org/2000/svg" xmlns:xlink="http://www.w3.org/1999/xlink">
    <!-- Generator: Sketch 60 (88103) - https://sketch.com -->
    <title>logo</title>
    <desc>Created with Sketch.</desc>
    <g id="Page-1" stroke="none" stroke-width="1" fill="none" fill-rule="evenodd">
        <path d="M95.6734785,0.165136516 C96.5093662,-0.170884408 97.4666903,0.0177023926 98.1095686,0.645030877 L98.1095686,0.645030877 L131.904597,34.1555911 L131.904597,2.26900418 C131.904597,1.03043394 132.91718,0.0263743805 134.166265,0.0263743805 C135.415349,0.0263743805 136.428059,1.03043394 136.428059,2.26900418 L136.428059,2.26900418 L136.428059,39.6461675 C136.437587,40.5546387 135.893526,41.3791292 135.050135,41.7341332 C134.166624,42.134794 133.124267,41.9384133 132.450517,41.2443635 L132.450517,41.2443635 L98.6554883,7.73380323 L98.6554883,39.5172807 L98.759473,39.5172807 C98.852193,40.3711352 98.4450185,41.2025136 97.7109302,41.6582201 C96.9768418,42.1139266 96.0447657,42.1139266 95.3106773,41.6582201 C94.576589,41.2025136 94.1694145,40.3711352 94.2621345,39.5172807 L94.2621345,39.5172807 L94.2621345,2.19167212 C94.282967,1.29753659 94.8375909,0.50115744 95.6734785,0.165136516 Z M341.966698,0.266463831 C343.122063,0.266463831 344.091678,1.12994893 344.215368,2.26900418 L344.215368,2.26900418 L344.215368,39.5172807 C344.308088,40.3711352 343.900913,41.2025136 343.166825,41.6582201 C342.432736,42.1139266 341.50066,42.1139266 340.766572,41.6582201 C340.032484,41.2025136 339.625309,40.3711352 339.718029,39.5172807 L339.718029,39.5172807 L339.718029,2.26900418 C339.841719,1.12994893 340.811334,0.266463831 341.966698,0.266463831 Z M355.271293,0.165136516 C356.107181,-0.170884408 357.064505,0.0177023926 357.707383,0.645030877 L357.707383,0.645030877 L391.502412,34.1555911 L391.502412,2.26900418 C391.626102,1.12994893 392.595717,0.266463831 393.751081,0.266463831 C394.906446,0.266463831 395.87606,1.12994893 395.999877,2.26900418 L395.999877,2.26900418 L395.999877,39.6461675 C396.009405,40.5546387 395.465344,41.3791292 394.621953,41.7341332 C393.774045,42.0753435 392.802652,41.8827003 392.152316,41.2443635 L392.152316,41.2443635 L358.357287,7.73380323 L358.357287,39.5172807 L358.383284,39.5172807 C358.383284,40.755851 357.370701,41.7599105 356.121616,41.7599105 C354.872532,41.7599105 353.859949,40.755851 353.859949,39.5172807 L353.859949,39.5172807 L353.859949,2.19167212 C353.880781,1.29753659 354.435405,0.50115744 355.271293,0.165136516 Z M291.469126,0.000597026462 C292.082451,-0.0134294986 292.675209,0.220205188 293.111455,0.647918104 C293.5477,1.07563102 293.790001,1.66072233 293.782786,2.26900418 L293.782786,2.26900418 L293.782786,29.5156674 L327.577815,0.748140293 C328.17853,0.180073812 329.047206,-0.0111967684 329.833934,0.251373794 C330.620662,0.513944356 331.195908,1.18712423 331.327959,1.99975145 C331.460011,2.81237867 331.127125,3.63065544 330.46339,4.12497367 L330.46339,4.12497367 L312.136086,19.7460502 L330.645364,38.0995263 C331.47121,38.9878794 331.47121,40.3560104 330.645364,41.2443635 C329.765298,42.1025002 328.353896,42.1025002 327.47383,41.2443635 L327.47383,41.2443635 L308.730587,22.5300044 L293.75679,35.2124626 L293.75679,39.5172807 C293.75679,40.7700874 292.732568,41.7856879 291.469126,41.7856879 C290.871591,41.778959 290.301643,41.5353084 289.886484,41.1091153 C289.471326,40.6829222 289.245516,40.109663 289.259451,39.5172807 L289.259451,39.5172807 L289.259451,2.19167212 C289.259451,0.98157476 290.248757,0.000597026462 291.469126,0.000597026462 Z M165.036724,0.0916331781 C165.886837,0.0916331781 166.665148,0.564331887 167.051428,1.31524208 L167.051428,1.31524208 L185.846663,38.5635187 C186.105896,39.0932485 186.14195,39.7034777 185.946875,40.2596 C185.751799,40.8157224 185.34162,41.2720463 184.806816,41.5279144 C184.276969,41.7939226 183.661439,41.8372455 183.099012,41.6481148 C182.536585,41.4589842 182.074612,41.0533232 181.817256,40.5225976 L181.817256,40.5225976 L179.763558,36.475553 L150.335886,36.475553 L148.282188,40.5225976 C148.04421,41.0715534 147.590455,41.5003231 147.026023,41.709595 C146.461592,41.9188668 145.835451,41.8904852 145.292628,41.6310238 C144.757824,41.3751557 144.347645,40.9188318 144.15257,40.3627095 C143.957494,39.8065871 143.993549,39.1963579 144.252781,38.6666281 L144.252781,38.6666281 L163.02202,1.31524208 C163.4083,0.564331887 164.186611,0.0916331781 165.036724,0.0916331781 Z M195.699214,1.98545329 C197.316721,0.634119824 199.418382,-0.00781745832 201.522357,0.206815859 L201.522357,0.206815859 L277.405195,0.206815859 C278.55392,0.329464693 279.424735,1.29091759 279.424735,2.43655698 C279.424735,3.58219637 278.55392,4.54364927 277.405195,4.66629811 L277.405195,4.66629811 L201.522357,4.66629811 C199.650632,4.66629811 199.104713,5.02718106 198.922739,5.15606783 C198.740766,5.2849546 198.454808,5.82627904 198.454808,7.73380323 L198.454808,7.73380323 L198.454808,15.6732283 C198.454808,17.4776431 198.922739,18.0705222 198.922739,18.2509637 C198.922739,18.4314052 199.59864,18.6634013 201.522357,18.6634013 L201.522357,18.6634013 L271.99799,18.6634013 C274.109158,18.4564884 276.215898,19.097117 277.84713,20.4420388 C279.209935,22.0459304 279.857322,24.1299007 279.640866,26.2161661 L279.640866,26.2161661 L279.640866,34.2071458 C279.857322,36.2934112 279.209935,38.3773815 277.84713,39.9812731 C276.2185,41.3328504 274.112447,41.9825518 271.99799,41.7856879 L271.99799,41.7856879 L196.167145,41.7856879 C194.90957,41.7717538 193.893534,40.7642701 193.879481,39.5172807 C193.907741,38.2846528 194.923732,37.3001098 196.167145,37.3004283 L196.167145,37.3004283 L272.049983,37.3004283 C273.921707,37.3004283 274.467627,37.0168774 274.6496,36.8364359 C274.831574,36.6559945 275.143528,36.0888927 275.039543,34.1813685 L275.039543,34.1813685 L275.039543,26.1903887 C275.039543,24.3859739 274.675597,23.7930948 274.545616,23.6126533 C274.415635,23.4322118 273.869715,23.1228836 271.945998,23.1228836 L271.945998,23.1228836 L201.470365,23.1228836 C199.373643,23.3517552 197.272846,22.7286809 195.647221,21.3958009 C194.347154,19.8098143 193.713978,17.7877796 193.879481,15.7505603 L193.879481,15.7505603 L193.879481,7.75958059 C193.670179,5.66970259 194.327086,3.58529445 195.699214,1.98545329 Z M83.5257138,0.0779290885 C84.6744384,0.200577923 85.5452536,1.16203082 85.5452536,2.30767021 C85.5452536,3.4533096 84.6744384,4.4147625 83.5257138,4.53741134 L83.5257138,4.53741134 L4.49733846,4.53741134 L4.49733846,18.7407334 L72.7632969,18.7407334 C73.3653529,18.7405719 73.9420281,18.9811962 74.3628249,19.4081546 C74.7836217,19.8351129 75.0129694,20.4123138 74.998968,21.0091406 C75.0061944,21.5969163 74.7721132,22.1623464 74.3504895,22.5755597 C73.9288659,22.9887731 73.3559371,23.214255 72.7632969,23.2002157 L72.7632969,23.2002157 L4.49733846,23.2002157 L4.49733846,37.3004283 L83.5257138,37.3004283 C84.7502768,37.3145485 85.7353891,38.3029434 85.7353891,39.5172807 C85.7353891,40.7404984 84.7585984,41.7439875 83.5257138,41.7856879 L83.5257138,41.7856879 L-9.9475983e-14,41.7856879 L-9.9475983e-14,0.0779290885 Z M165.049722,7.26981086 L152.62355,31.9902934 L177.449898,31.9902934 L165.049722,7.26981086 Z" id="logo" fill="#FFFFFF" fill-rule="nonzero"></path>
    </g>
</svg>