<?xml version="1.0" encoding="UTF-8"?>
<svg width="230px" height="57px" viewBox="0 0 230 57" version="1.1" xmlns="http://www.w3.org/2000/svg" xmlns:xlink="http://www.w3.org/1999/xlink">
    <!-- Generator: Sketch 60 (88103) - https://sketch.com -->
    <title>logo</title>
    <desc>Created with Sketch.</desc>
    <g id="Page-1" stroke="none" stroke-width="1" fill="none" fill-rule="evenodd">
        <path d="M58.4111897,8.19161677 C59.4736142,8.09853021 60.9055779,8.21488841 62.7070803,8.54069134 C63.5616392,8.75013608 64.1159476,9.14575395 64.3700057,9.77408818 C64.6240638,10.4024224 64.7164485,11.2867447 64.6471599,12.4968699 C64.5778713,13.7069951 64.416198,15.2196516 64.1621401,17.0813827 C63.8849858,18.9431137 63.67712,21.2004626 63.4923506,23.8301578 C63.6309277,23.3879968 63.8387934,22.8992924 64.0928515,22.4105879 C65.3400455,19.2223734 66.5872396,16.5694066 67.8344336,14.4284159 C69.3818781,11.7056342 70.8600338,10.0766195 72.245805,9.54137181 C72.8694021,9.23884049 73.5391914,9.21556886 74.2320771,9.47155688 C75.6640406,9.58791509 76.6802728,10.0998911 77.2576774,10.9842134 C77.8581781,11.8685357 78.1353324,12.9623027 78.0891401,14.2887861 C78.0660439,15.5919979 77.7657934,17.058111 77.1883888,18.6405824 C76.6340803,20.2230539 75.8950024,21.8287969 75.0173474,23.43454 C74.5554236,24.5050354 73.9549229,25.6686173 73.2620372,26.9020141 C73.0079791,27.3441753 72.5691517,28.0423244 71.8531699,28.9964616 C71.2295728,29.9273271 70.5597835,30.7651061 69.8207055,31.5563419 C70.005475,31.4399836 70.3288217,31.3003539 70.7907454,31.1839957 C71.2295728,31.0443658 71.7838813,31.0676374 72.4074783,31.2072673 C73.0310754,31.3468971 73.7008648,31.6959717 74.4399427,32.254491 C75.1790207,32.8130103 75.9411948,33.7206043 76.7033689,34.9540011 C77.2807735,35.9546815 77.6734087,37.1648067 77.8581781,38.5843766 C78.0429476,40.0039466 78.0429476,41.5166032 77.835082,43.0758029 C77.6272164,44.6582744 77.2576774,46.2174742 76.7264651,47.7534023 C76.1952529,49.312602 75.5254634,50.6856287 74.6940008,51.8724824 C73.8625381,53.0593358 72.9155944,54.013473 71.8531699,54.7116222 C70.7907454,55.4097713 69.635936,55.7355743 68.388742,55.6424878 L68.388742,55.6424878 L68.388742,55.5726728 C67.5803755,55.5726728 66.8182014,55.0606968 66.1022196,54.0367447 C65.3862379,53.0127926 64.6702561,51.383778 63.9311781,49.1497006 C63.3306774,47.4043277 62.6839842,46.3338324 61.9449062,45.8683996 C61.806329,47.8930321 61.6908481,49.6849482 61.6215595,51.2441481 C61.5522711,52.8033479 61.4829825,54.013473 61.4136939,54.8279804 C61.3444053,55.1537834 61.2289244,55.4795863 61.0903473,55.7821175 C60.928674,56.1079206 60.7208084,56.3406369 60.420558,56.5035384 C59.8662495,56.8758846 59.3350372,57.0387861 58.826921,56.9922428 C58.318805,56.9456996 57.8337851,56.5966249 57.3487653,55.9450191 C56.8868415,55.2701416 56.448014,54.2229178 56.0322827,52.7800762 C55.6396474,51.3372346 55.2470123,49.4056886 54.8774733,46.9621665 C54.5541268,44.7746325 54.346261,42.3311105 54.2538762,39.6083288 C54.2307801,39.3057975 54.2307801,38.9799946 54.2307801,38.6774632 C53.8150488,39.2592543 53.3993174,39.8177735 52.96049,40.4228362 C51.7363921,42.0751226 50.6046789,43.6110507 49.5422544,45.0538922 C47.6945595,47.5206858 46.1471151,48.9169842 44.8537287,49.1962438 C44.6920554,49.2427872 44.5765745,49.2660588 44.4610936,49.2893304 C44.3456125,49.312602 44.2070355,49.312602 44.0684583,49.312602 L44.0684583,49.312602 L43.9067851,49.312602 C43.4679575,49.382417 42.9367452,49.2660588 42.2669559,48.9402559 C41.6202626,48.6144529 40.9735694,48.1955635 40.3499724,47.6835874 C39.7263755,47.1716114 39.1951631,46.613092 38.7101433,46.0080293 C38.2251234,45.4029668 37.9479692,44.8444475 37.8786806,44.3091997 C37.6708149,42.9129014 37.555334,41.4700599 37.5784302,40.0039466 C37.6015263,39.9341318 37.6015263,39.8875884 37.6015263,39.8177735 C37.555334,39.8875884 37.5322377,39.9574034 37.4860454,40.0272183 C36.7700636,41.2606152 36.0540818,42.494012 35.315004,43.6808656 C34.5990222,44.8909907 33.8599442,45.9614861 33.1208663,46.9621665 C31.2962675,49.3591454 29.7488232,50.7321721 28.501629,51.1045183 C28.1089939,51.2674197 27.7163588,51.2906914 27.3468198,51.1743331 C26.9772808,51.1277899 26.6539343,51.0347034 26.3998762,50.9183452 C26.1458181,50.8019869 25.9379525,50.7089003 25.7993754,50.6158138 C24.9448164,50.1969244 24.1595462,49.6151334 23.3973721,48.8471694 C22.6582941,48.0792052 22.0577932,47.1483396 21.6189658,46.0313011 C21.1570421,44.7979041 20.8567917,43.6110507 20.6720222,42.4707404 C20.4872527,41.3304301 20.394868,40.1435765 20.394868,38.9334513 C20.394868,37.723326 20.4872527,36.443386 20.6489259,35.0936309 C20.8105992,33.7438759 21.0415612,32.2777626 21.3418116,30.6720196 C21.5727733,29.2757212 21.8499276,28.2052259 22.1732743,27.4838051 C22.4966208,26.7623844 22.8430636,26.2504082 23.1895064,25.947877 C23.5359491,25.6453457 23.882392,25.4824442 24.2057385,25.4824442 L24.2057385,25.4824442 L25.0833936,25.4824442 C25.7762791,25.4824442 26.3536838,25.6220741 26.8156075,25.878062 C27.2775312,26.1573217 27.6470702,26.459853 27.9473207,26.785656 C28.2706673,27.1580022 28.5247253,27.5768916 28.7094948,28.0190528 C28.2706673,29.0197333 27.9242244,30.3462167 27.6701665,32.0450463 C27.4161084,33.7438759 27.2313389,35.4892487 27.0696656,37.281165 C26.9079922,39.0730812 26.8387038,40.7719108 26.8156075,42.3776538 C26.8156075,43.9833969 26.8387038,45.2167937 26.9079922,46.0313011 C26.9772808,46.682907 27.1620503,47.2646979 27.485397,47.7534023 C27.7856474,48.2421067 28.1551864,48.6842679 28.501629,49.0333425 C29.356188,48.5679097 30.4417087,47.450871 31.7581913,45.6822265 C32.8206159,44.2393849 33.9292328,42.5870985 35.0378498,40.6788242 C36.0771781,38.9334513 37.0010256,37.281165 37.8555844,35.6754218 C38.0172576,34.3256668 38.2020271,33.0224551 38.4098929,31.7890582 C38.6177585,30.5556614 38.802528,29.4618943 38.9872975,28.5077572 C39.2182593,27.1114588 39.6339907,25.9246054 40.2344915,24.9239249 C40.8580885,23.9232444 41.5047818,23.1552803 42.1976673,22.5734894 C42.9136491,21.9916984 43.5603423,21.5960806 44.1608431,21.3400925 C44.761344,21.0841045 45.2001714,20.9677463 45.4542295,20.9677463 C46.4242694,21.0375613 47.2788282,21.247006 47.9486176,21.5495373 C48.6415031,21.8520685 49.1958116,22.2244148 49.6346391,22.6665759 C50.0734667,23.0854655 50.4199094,23.5043549 50.6277752,23.9232444 C50.8356408,24.3421339 50.9973142,24.6679368 51.0666026,24.9239249 C51.0896989,24.9704682 51.1127951,25.0635548 51.1127951,25.1799129 L51.1127951,25.1799129 L51.1589874,25.2497279 C51.4130454,27.879423 50.3044285,30.2065868 47.8562328,32.2312194 C47.140251,32.7897387 46.4473655,33.2551715 45.8006723,33.5809744 C45.1539791,33.930049 44.6920554,34.1162221 44.391805,34.2093087 C44.1839394,36.6295591 44.022266,39.6316005 43.9067851,43.1688895 C43.9067851,43.261976 43.9067851,43.4481491 43.9529774,43.7274088 C43.9991699,44.0066685 44.022266,44.3557431 44.0684583,44.7746325 C44.1146508,45.1935221 44.1377469,45.6356831 44.1839394,46.0778443 C44.2070355,46.5432771 44.2301317,46.9621665 44.2301317,47.3810561 C44.3687088,47.3810561 44.4841897,47.3577845 44.5534783,47.3112411 C45.4773256,47.125068 46.7014236,45.9614861 48.248868,43.7739522 C49.3112926,42.3311105 50.4661018,40.7951824 51.6671035,39.142896 C52.5678547,37.9094992 53.3993174,36.7691889 54.2076839,35.6754218 C54.2076839,34.2325803 54.2307801,32.766467 54.2769725,31.3003539 C54.3693573,28.4844856 54.5079343,25.7384323 54.6927038,23.0389222 C54.8774733,20.339412 55.0622428,17.9191617 55.2932047,15.8247142 C55.5010704,13.7302667 55.708936,12.0314371 55.9168016,10.7282254 C56.1246674,9.42501361 56.2632445,8.75013608 56.3787254,8.65704954 C56.6789757,8.44760479 57.3487653,8.28470332 58.4111897,8.19161677 Z M73.5622876,11.3100163 C73.3313258,11.2402014 73.1003639,11.2634731 72.8463059,11.3798312 C72.5691517,11.4961894 72.1996127,11.7521775 71.7838813,12.1245237 C71.3450539,12.4968699 70.8369377,13.1252041 70.2364369,13.9862548 C69.635936,14.8473054 68.9661466,16.0108873 68.2039725,17.4770006 C67.4648946,18.9431137 66.6334319,20.8281166 65.7095844,23.1320087 C65.2014684,24.4584921 64.7164485,25.7384323 64.2545248,26.9951007 C63.7926011,28.2517691 63.399966,29.3688078 63.0766193,30.3694883 C62.9380422,32.5570223 62.7763689,34.8143712 62.6377917,37.1415351 C62.4992147,39.468699 62.3375413,41.7027763 62.1527718,43.7972238 C63.5616392,44.16957 64.7395447,45.7054981 65.6864883,48.4282798 C66.1253159,49.70822 66.517951,50.7089003 66.8412975,51.4070496 C67.1646442,52.1051987 67.4648946,52.6171748 67.7189527,52.9429777 C67.9730108,53.2687807 68.1577801,53.4549538 68.2963573,53.5247686 C68.4349343,53.5945836 68.5042229,53.6178552 68.5504154,53.6178552 C68.5735115,53.6178552 68.6889924,53.5480404 68.8506658,53.431682 C69.0123391,53.3153239 69.2433009,52.9662493 69.5435513,52.4077299 C69.8438018,51.8492106 70.1671483,51.0114318 70.5366873,49.8711213 C70.8831301,48.7308111 71.2988614,47.1483396 71.737689,45.0771638 C72.0148432,43.7041372 72.1765166,42.494012 72.2227089,41.4235167 C72.2227089,39.8643168 72.1303241,38.4680185 71.8993623,37.281165 C71.6684004,36.4899292 71.3912462,35.8383233 71.0678996,35.3030756 C70.7214568,34.7910996 70.3519178,34.3489384 69.9592827,34.0464072 C69.5435513,33.7438759 69.1740123,33.5111594 68.8275696,33.3715297 C68.4811268,33.2318998 68.1808764,33.1388132 67.9499145,33.09227 C67.7189527,33.0457267 67.5803755,33.0224551 67.5341832,33.0224551 C67.0953556,32.9293685 66.8412975,32.6268372 66.7258166,32.1148613 C66.656528,31.5330702 66.8412975,31.2072673 67.3263175,31.1141807 C67.6958565,30.9745508 68.1808764,30.578933 68.758281,29.9273271 C70.3519178,27.7165215 71.5298234,25.5988024 72.2919975,23.5974415 C73.0772677,21.5960806 73.5853839,19.7808927 73.8163457,18.1751497 C74.0473076,16.5694066 74.1165961,15.19638 73.978019,14.0095264 C73.8394418,12.8226728 73.7008648,11.9383506 73.5622876,11.3100163 Z M156.223537,1.88293825e-13 C156.800941,1.88293825e-13 157.35525,0.162901469 157.84027,0.465432771 C158.348385,0.767964072 158.717925,1.27994012 158.948887,1.97808927 C159.179848,2.67623843 159.110561,3.65364724 158.694828,4.8870441 C158.510059,5.42229179 158.232905,6.37642896 157.84027,7.726184 C157.47073,9.07593903 157.055,10.751497 156.662364,12.7295863 C157.147384,12.7295863 157.609307,12.7295863 158.094327,12.7063146 C158.579347,12.683043 159.041271,12.6597714 159.526291,12.6132281 C161.581852,12.4037833 163.060007,12.1245237 163.937662,11.7521775 C164.815318,11.3798312 165.392722,11.007485 165.692973,10.6351388 C166.085608,10.1929777 166.478243,10.1929777 166.893974,10.6351388 C167.240417,11.0307567 167.263514,11.4961894 166.940166,11.9848939 C165.692973,13.3811922 163.267873,14.2422428 159.664868,14.5215024 C159.087464,14.5680457 158.510059,14.5913174 157.932655,14.614589 C157.378346,14.6378606 156.777846,14.6378606 156.20044,14.6378606 C155.761612,16.9184812 155.368979,19.4085465 155.022536,22.1546 C154.676093,24.9006533 154.491323,27.7397931 154.468226,30.7185629 C154.445131,33.6740609 154.6299,36.6993739 155.022536,39.7479587 C155.415171,42.7965433 156.108055,45.7520414 157.147384,48.5911813 C157.332153,49.0566141 157.516923,49.4522319 157.747886,49.7780348 C157.932655,50.1038378 158.140519,50.3830975 158.348385,50.6158138 C158.579347,50.8485302 158.787213,50.9648884 159.018175,50.9648884 C159.387714,50.5925422 159.71106,50.0572944 160.011311,49.3591454 C160.38085,48.3584648 160.842774,47.1483396 161.420178,45.7054981 C161.974488,44.2626565 162.574987,42.7500001 163.198584,41.1908002 C163.822182,39.6316005 164.445779,38.0491291 165.046279,36.4899292 C165.64678,34.9074578 166.224185,33.5111594 166.732302,32.2777626 C167.148032,31.2305389 167.494475,30.3694883 167.794726,29.6480675 C167.979495,28.7404737 168.164264,27.9492379 168.418323,27.4139903 C168.741669,26.715841 169.088112,26.1805933 169.434555,25.878062 C169.780998,25.5755308 170.127441,25.4126292 170.450787,25.4126292 L170.450787,25.4126292 L171.328442,25.4126292 C172.021328,25.4126292 172.598732,25.5289876 173.060655,25.8082471 C173.52258,26.0875067 173.892118,26.3900382 174.192369,26.715841 C174.515717,27.0881872 174.769773,27.5070768 174.954544,27.9492379 C174.515717,28.9499184 174.169274,30.2764017 173.915215,31.9752313 C173.661157,33.6740609 173.453291,35.4194339 173.314714,37.2113501 C173.153042,39.0032662 173.083752,40.7020958 173.060655,42.3078389 C173.060655,43.9135819 173.083752,45.1469787 173.153042,45.9614861 C173.222329,46.613092 173.407098,47.194883 173.730446,47.6835874 C174.053792,48.1722917 174.400235,48.6144529 174.815966,48.9867991 C175.670525,48.5213664 176.756045,47.4043277 178.072528,45.6356831 L178.072528,45.6356831 L178.072528,45.5658683 C178.141817,45.519325 178.580645,45.0538922 179.342818,44.16957 C180.128089,43.2852476 181.21361,42.1449374 182.599381,40.7951824 C183.869671,39.468699 185.5095,37.9327708 187.495772,36.2106696 C189.482045,34.4652967 191.722374,32.766467 194.216762,31.0676374 C199.875328,27.1812738 205.349124,24.6213936 210.684342,23.3879968 C217.42843,21.8287969 223.687496,22.3640447 229.461542,24.9937398 C229.669408,25.0635548 229.83108,25.2264561 229.923465,25.4824442 C230.015851,25.7151605 230.015851,25.9711486 229.969657,26.2969516 C229.877273,26.5529395 229.7156,26.7391126 229.484637,26.8321992 C229.276773,26.9485575 229.068907,26.9252857 228.884138,26.8089276 C225.766152,25.4126292 222.648167,24.6446652 219.553278,24.5515786 C216.435293,24.4584921 213.455885,24.7610234 210.545765,25.4824442 C207.635646,26.203865 204.887201,27.2278172 202.277331,28.5543005 C199.667462,29.8807839 197.288555,31.2538105 195.163706,32.6966522 C192.900279,34.2558519 190.821623,35.8615949 188.927736,37.4906097 C187.056944,39.1196244 185.39402,40.6322809 184.008248,41.982036 C182.622477,43.331791 181.513861,44.4721013 180.705493,45.3796952 C179.897127,46.287289 179.4583,46.7992651 179.389011,46.9156233 C178.465163,48.1955635 177.656797,49.1729722 176.917719,49.8013065 C176.178641,50.4296407 175.485756,50.8485302 174.815966,51.057975 C174.42333,51.2208765 174.030697,51.2441481 173.661157,51.1277899 C173.291618,51.0812466 172.968271,50.98816 172.714214,50.8718018 C172.460156,50.7554437 172.252289,50.6623571 172.113713,50.5692706 C171.259154,50.150381 170.450787,49.5685901 169.688613,48.800626 C168.92644,48.032662 168.325938,47.1017964 167.933303,45.9847577 C167.494475,44.7513609 167.171129,43.5645073 166.963263,42.424197 C166.755397,41.2838868 166.663012,40.0970331 166.686109,38.8869081 C166.709205,38.2120304 166.801589,37.467338 166.847782,36.7459173 C166.778494,36.9088188 166.709205,37.0717202 166.639917,37.2578933 C166.039416,38.8170931 165.415819,40.3762928 164.792222,41.9354927 C164.168624,43.4946925 163.591219,45.007349 163.013815,46.4501905 C162.436411,47.8930321 161.974488,49.1031573 161.604948,50.1038378 C160.865869,52.0121121 159.826542,53.1058792 158.463867,53.3851388 C158.371482,53.431682 158.232905,53.4549538 158.117424,53.4549538 L158.117424,53.4549538 L157.770981,53.4549538 C157.239769,53.4549538 156.731652,53.3618672 156.246632,53.1756941 C155.761612,52.989521 155.299689,52.7568046 154.907054,52.5008165 C154.491323,52.2215568 154.121784,51.9655689 153.798437,51.6863092 C153.47509,51.4070496 153.221033,51.1976049 153.036264,51.0347034 C152.712916,50.8019869 152.366473,50.3365541 151.996935,49.6151334 C151.627396,48.8937126 151.188569,47.7301307 150.680452,46.0778443 C150.195432,44.4721013 149.848989,42.6569135 149.594931,40.7719108 C149.202296,42.2147523 148.786565,43.6575939 148.324641,45.0771638 C147.770333,46.7759935 147.262217,48.0559336 146.777197,48.9169842 C145.945734,50.4063691 144.675444,51.1510615 143.035615,51.1510615 C142.873941,51.1510615 142.75846,51.1510615 142.619883,51.1277899 C142.481306,51.1045183 142.342729,51.1045183 142.204152,51.1045183 C141.880805,51.0347034 141.580555,50.9648884 141.303401,50.8950734 C141.026246,50.8485302 140.795285,50.7787153 140.564323,50.6856287 C140.264072,50.6390855 139.986918,50.5227272 139.73286,50.3132825 L139.73286,50.3132825 L139.617379,50.1969244 C139.571187,50.1969244 139.501898,50.1271094 139.386417,50.0107512 C138.554955,49.3591454 137.954454,48.4980948 137.631107,47.4741426 C137.19228,46.357104 136.915125,44.8211759 136.799644,42.8896298 C136.245336,44.2626565 135.43697,45.2400653 134.374545,45.8683996 C133.935717,46.1476593 133.473794,46.3338324 132.988774,46.4269189 C132.503754,46.4967339 132.04183,46.5432771 131.603003,46.5432771 C131.348945,46.5432771 131.094887,46.5432771 130.863925,46.5200055 C130.609867,46.4967339 130.402001,46.4734621 130.171039,46.4269189 C129.662923,46.4269189 129.062422,46.3105608 128.392633,46.0545727 C127.699747,45.7985846 127.053054,45.4727818 126.429457,45.0306206 C125.80586,44.611731 125.274648,44.1230266 124.83582,43.5877791 C124.720339,43.4481491 124.674147,43.331791 124.581762,43.1921611 C124.096742,44.4255581 123.634818,45.6589549 123.195991,46.7992651 C122.018086,49.7314916 120.886372,51.5466793 119.777756,52.2448286 C119.269639,52.6171748 118.576754,52.8033479 117.722195,52.8033479 C116.84454,52.8033479 115.966885,52.6171748 115.043037,52.2215568 C114.142286,51.825939 113.264631,51.2441481 112.410072,50.4529124 C111.57861,49.6849482 110.931916,48.6609963 110.493089,47.4275993 C110.100454,46.4036473 109.846396,45.1702503 109.730915,43.7506804 C109.63853,42.3311105 109.615434,40.818454 109.684722,39.2592543 C109.33828,40.1203049 108.922548,41.074442 108.483721,42.0983942 C108.044893,43.1456179 107.513681,44.1928416 106.890084,45.2633369 C105.94314,47.125068 104.788331,48.1490201 103.425656,48.3584648 C103.356367,48.4050082 103.21779,48.4282798 103.033021,48.4282798 C102.91754,48.4282798 102.825155,48.4050082 102.755866,48.3584648 C102.270847,48.3584648 101.693442,48.1955635 101.023653,47.8930321 C100.330767,47.5905008 99.6840737,47.1716114 99.0604768,46.682907 C98.4368798,46.1942025 97.9056675,45.6589549 97.4899362,45.0538922 C97.0742047,44.4488297 96.8663391,43.8903103 96.8663391,43.3550626 C96.9356277,41.5166032 97.0742047,39.7945019 97.2358781,38.1422156 C96.6815696,38.9101797 96.104165,39.7014153 95.5036642,40.5159227 C94.2795663,42.168209 93.1478532,43.7041372 92.0854287,45.1469787 C90.2377338,47.6137724 88.6902894,49.0100707 87.396903,49.2893304 C87.2352297,49.3358738 87.1197488,49.3591454 87.0042677,49.382417 C86.8887868,49.4056886 86.7502098,49.4056886 86.6116326,49.4056886 L86.6116326,49.4056886 L86.4499594,49.4056886 C86.0111318,49.4755035 85.4799195,49.3591454 84.8101301,49.0333425 C84.1634369,48.7075395 83.5167437,48.28865 82.8931467,47.7766739 C82.2695497,47.2646979 81.7383374,46.7061786 81.2533175,46.1011159 C80.7682977,45.4960534 80.4911434,44.937534 80.4218548,44.4022863 C80.2139892,43.005988 80.0985082,41.5631464 80.1216045,40.0970331 C80.1447006,38.6541916 80.2370854,37.2113501 80.3987587,35.8383233 C80.5604319,34.442025 80.7452014,33.1388132 80.9530672,31.9054164 C81.1609328,30.6720196 81.3457023,29.5782527 81.5304718,28.6241153 C81.7614336,27.2278172 82.177165,26.0409635 82.7776658,25.040283 C83.4012628,24.0396027 84.047956,23.2716386 84.7408415,22.6898475 C85.4568234,22.1080566 86.1035166,21.7124388 86.7040173,21.4564507 C87.3045183,21.2004626 87.7433457,21.0841045 87.9974038,21.0841045 C88.9674437,21.1539194 89.8220025,21.3633642 90.4917919,21.6658954 C91.1846774,21.9684268 91.7389859,22.3407731 92.1778134,22.7829341 C92.616641,23.2018237 92.9630837,23.6207131 93.1709495,24.0396027 C93.3788151,24.4584921 93.5404884,24.7842951 93.6097769,25.040283 C93.6328732,25.0868264 93.6559693,25.1799129 93.6559693,25.2962711 L93.6559693,25.2962711 L93.7021616,25.366086 C93.9562197,27.9957812 92.8476028,30.3229451 90.3994071,32.3475776 C89.6834253,32.9060969 88.9905398,33.3715297 88.3438466,33.6973325 C87.6971534,34.0464072 87.2352297,34.2325803 86.9349793,34.3256668 C86.7271136,36.7459173 86.5654403,39.7479587 86.4499594,43.2852476 C86.4499594,43.3783342 86.4499594,43.5645073 86.4961517,43.843767 C86.5423441,44.1230266 86.5654403,44.4721013 86.6116326,44.8909907 C86.657825,45.3098803 86.6809212,45.7520414 86.7271136,46.1942025 C86.7502098,46.6596352 86.7733059,47.0785248 86.7733059,47.4974142 C86.911883,47.4974142 87.027364,47.4741426 87.0966525,47.4275993 C88.0204999,47.2414262 89.2445977,46.0778443 90.7920423,43.8903103 C91.8544667,42.4474686 93.0092761,40.9115405 94.2102778,39.2592543 C95.4112795,37.6069679 96.5429926,36.0710398 97.5592248,34.6747415 C97.6054171,34.5816549 97.6978018,34.4885683 97.7439943,34.4187534 C97.9056675,33.3249863 98.0442446,32.2079478 98.2290141,31.1374523 C98.4368798,29.741154 98.8295149,28.5543005 99.3838234,27.55362 C99.9381318,26.5529395 100.515536,25.7849755 101.139134,25.2031845 C101.762731,24.6446652 102.340135,24.2257758 102.894444,23.9465161 C103.425656,23.690528 103.841387,23.5508981 104.095445,23.5508981 C104.210926,23.5508981 104.303311,23.5508981 104.395696,23.5741699 C104.48808,23.5974415 104.580465,23.5974415 104.695946,23.5974415 C105.873852,23.6439847 107.028661,24.0396027 108.18347,24.8075667 C109.33828,25.5522592 110.308319,26.2969516 111.070493,26.9951007 C111.070493,26.9485575 111.070493,26.9252857 111.09359,26.9020141 C111.116686,26.8787425 111.116686,26.8321992 111.116686,26.7391126 C111.347648,25.3428144 111.624802,24.272319 111.948149,23.5508981 C112.271495,22.8294774 112.617938,22.3175013 112.987477,22.0382416 C113.357016,21.7357104 113.703459,21.5960806 114.026805,21.5960806 L114.026805,21.5960806 L114.858268,21.5960806 C115.551153,21.5960806 116.128558,21.7124388 116.590482,21.9684268 C117.052406,22.2011432 117.421944,22.5036744 117.722195,22.8294774 C118.045542,23.2018237 118.2996,23.6207131 118.484369,24.0628743 C118.184119,24.7377518 117.906964,25.6918889 117.652906,26.9485575 C117.398848,28.2052259 117.167887,29.6015243 116.960021,31.1607239 C116.752155,32.7199238 116.567386,34.3256668 116.382616,36.0244964 C116.197847,37.723326 116.05927,39.3057975 115.966885,40.818454 C115.8745,42.3311105 115.828308,43.6575939 115.782115,44.8444475 C115.735923,46.0080293 115.735923,46.8690799 115.782115,47.4043277 C115.851404,48.1722917 116.082366,48.8471694 116.475001,49.4056886 C116.867636,49.9642079 117.283367,50.4296407 117.768387,50.8019869 C117.953157,50.8019869 118.137926,50.8019869 118.322696,50.7787153 C118.507465,50.7554437 118.692235,50.6856287 118.923197,50.5692706 C119.685371,50.1271094 120.609218,48.6144529 121.671643,46.0545727 C122.341432,44.3091997 123.057414,42.4707404 123.819588,40.5159227 C123.888877,40.306478 123.958165,40.1203049 124.05055,39.91086 C124.004357,38.4912901 123.981261,37.0949919 124.027454,35.7685084 C124.096742,33.7671475 124.212223,31.7657866 124.3508,29.7876974 C124.420089,28.9964616 124.443185,28.0423244 124.396993,26.8787425 C124.3508,25.7151605 124.420089,24.7610234 124.604858,23.9697877 C124.789628,23.2250953 125.343936,22.8760206 126.267784,22.9691072 C127.191631,23.0621938 128.277152,23.364725 129.570538,23.8999728 C129.916981,24.0396027 130.171039,24.272319 130.378905,24.6213936 C130.563674,24.9704682 130.725348,25.3428144 130.840828,25.7617039 C130.956309,26.1805933 131.025598,26.5762113 131.07179,26.9951007 C131.117983,27.4139903 131.117983,27.7630647 131.07179,28.0423244 C130.77154,30.066957 130.540578,32.2777626 130.402001,34.7212847 C130.240328,37.1648067 130.309616,40.1901197 130.563674,43.8204954 C130.563674,44.0299401 130.609867,44.2859281 130.725348,44.5651878 C131.117983,44.6582744 131.579906,44.681546 132.064926,44.6582744 C132.573042,44.6350028 133.081158,44.4721013 133.589275,44.1928416 C134.582411,43.5877791 135.2522,42.4474686 135.621739,40.7951824 C135.783412,39.980675 135.921989,39.3523408 135.968182,38.8869081 C136.014374,38.4447469 136.060566,38.0025857 136.106759,37.5371529 C136.176047,37.0949919 136.268432,36.5830158 136.360817,36.0012248 C136.453202,35.4194339 136.591779,34.6514699 136.776548,33.6507893 C136.868933,31.5563419 137.030606,29.5317093 137.238472,27.623435 C137.423241,25.7151605 137.631107,24.0396027 137.862069,22.6433043 C138.116127,21.247006 138.416377,20.1765107 138.739724,19.4550898 C139.063071,18.733669 139.409513,18.221693 139.755956,17.9424333 C140.102399,17.6399021 140.448842,17.5002722 140.772188,17.5002722 L140.772188,17.5002722 L141.649843,17.5002722 C142.342729,17.5002722 142.920134,17.6166303 143.382057,17.8726184 C143.843981,18.1053349 144.21352,18.4078661 144.513771,18.733669 C144.837117,19.1060152 145.091175,19.5249048 145.275945,19.9670658 C144.975694,20.6186717 144.69854,21.6891672 144.467578,23.1552803 C144.21352,24.6213936 144.005654,26.2736798 143.797789,28.135411 C143.589923,29.9971421 143.405154,31.9286881 143.266576,33.9765922 C143.127999,36.0244964 143.012518,37.9560425 142.94323,39.7945019 C142.873941,41.6329614 142.827749,43.2154328 142.781557,44.611731 C142.735364,46.0080293 142.75846,46.9621665 142.827749,47.4974142 C142.850845,47.7301307 142.920134,48.032662 142.989422,48.3584648 C143.058711,48.6842679 143.197288,48.9635275 143.42825,49.2195154 C144.21352,49.1031573 144.814021,48.6609963 145.252848,47.9163038 C145.553099,47.3810561 145.876445,46.6596352 146.222888,45.7287697 C146.569331,44.7979041 146.915774,43.7739522 147.23912,42.6569135 C147.585563,41.5398748 147.885814,40.4228362 148.20916,39.2592543 C148.532507,38.1189439 148.809661,37.0717202 149.040623,36.1408546 C149.063719,36.0710398 149.063719,36.0244964 149.086815,35.9779532 C148.994431,34.2558519 148.948238,32.5104791 148.994431,30.7185629 C149.040623,27.9026946 149.202296,25.1333696 149.47945,22.3640447 C149.756605,19.5947196 150.079951,17.0115678 150.449491,14.5680457 C149.825894,14.5215024 149.248489,14.4982308 148.717276,14.4982308 L148.717276,14.4982308 L147.470082,14.4982308 C146.592427,14.5913174 145.96883,14.8240338 145.645484,15.2429232 C145.460714,15.5454545 145.368329,15.778171 145.368329,15.9876157 C145.322137,16.1505172 145.322137,16.2668753 145.368329,16.3599619 C145.414522,16.6624932 145.345233,16.8952096 145.206656,17.1046543 C145.068079,17.3140991 144.883309,17.4304572 144.652348,17.4770006 L144.652348,17.4770006 L144.536867,17.4770006 C144.098039,17.4770006 143.797789,17.1977409 143.659212,16.6624932 C143.659212,16.5694066 143.659212,16.2668753 143.705404,15.7316276 C143.751596,15.19638 143.959462,14.6378606 144.375193,14.0560697 C144.975694,13.195019 145.96883,12.683043 147.354601,12.5666848 L147.354601,12.5666848 L148.809661,12.5666848 C149.387066,12.5666848 150.033758,12.5899565 150.772837,12.6364997 C151.165472,10.3558791 151.558107,8.40106151 151.973838,6.72550354 C152.366473,5.04994556 152.712916,3.83982036 153.013167,3.04858465 C153.313418,2.3504355 153.636764,1.74537288 153.960111,1.27994012 C154.283457,0.814507348 154.6299,0.465432771 154.953246,0.255988024 C155.207305,0.0930865542 155.646132,1.88293825e-13 156.223537,1.88293825e-13 Z M27.5546854,4.11908002 C27.8087435,4.0492651 28.0397055,4.0492651 28.2475711,4.18889493 C28.4554367,4.32852477 28.5940138,4.53796951 28.6633024,4.81722918 C28.7556871,5.07322179 28.732591,5.30593359 28.6171101,5.56192161 C28.501629,5.794638 28.3168597,5.95753946 28.0628016,6.05062602 C25.8686639,6.74877518 23.4435644,10.6351388 20.7644069,17.6166303 C20.1870022,19.1758302 19.6095975,20.8048448 19.0321929,22.5269462 C18.4778845,24.2490474 17.923576,25.9711486 17.41546,27.6932499 C16.9073438,29.4386227 16.4223239,31.1374523 15.9373041,32.8362819 C15.4522842,34.5118399 14.9903605,36.117583 14.5515329,37.6535111 C13.7893588,40.3995646 13.0964732,42.7965433 12.4959724,44.8211759 C11.8954715,46.8458083 11.3642592,48.3119216 10.9254317,49.2195154 C9.86300716,51.1510615 8.75439025,52.1284703 7.57648476,52.1284703 L7.57648476,52.1284703 L7.46100384,52.1284703 C7.25313817,52.1284703 7.09146486,52.1051987 7.02217631,52.0586555 L7.02217631,52.0586555 L6.86050301,52.0586555 C6.42167548,51.895754 5.93665558,51.6397659 5.40544331,51.2906914 C4.87423103,50.9416168 4.34301876,50.3830975 3.81180648,49.6151334 C3.28059421,48.8471694 2.74938193,47.7766739 2.26436203,46.4269189 C1.77934213,45.0538922 1.3405146,43.2852476 0.970975619,41.0977136 C0.670725206,39.1661677 0.439763359,36.955362 0.301186242,34.5118399 C0.162609125,32.0450463 0.0702243799,29.5549809 0.0240320075,27.0183723 C-0.0221603649,24.4817637 0.000935813737,22.01497 0.0702243799,19.5947196 C0.139512931,17.1744693 0.231897676,15.0102069 0.347378614,13.1019325 C0.439763359,11.1936581 0.555244282,9.65772999 0.670725206,8.47087643 C0.786206144,7.3072945 0.878590889,6.67896026 0.94787944,6.5858737 C1.06336036,6.51605879 1.29432223,6.30661405 1.61766883,6.00408274 C1.94101542,5.70155144 2.37984295,5.44556342 2.93415142,5.23611868 C3.48845988,5.02667392 4.15824927,4.95685901 4.9204234,5.04994556 C5.70569372,5.14303212 6.60644496,5.51537833 7.62267714,6.16698422 C8.22317798,6.53933043 8.73129406,7.0047632 9.17012159,7.56328252 C9.60894912,8.12180186 9.88610335,8.88976592 10.0477766,9.84390311 C10.20945,10.7980403 10.1863538,12.0779804 10.0246805,13.6139086 C9.83991098,15.1731083 9.49346819,17.1279259 8.93915973,19.5249048 C8.31556272,22.2011432 7.78435045,25.0635548 7.32242672,28.065596 C6.88359919,31.0909091 6.51406023,33.9533206 6.26000217,36.6761023 C6.00594413,39.398884 5.86736702,41.7725911 5.82117464,43.843767 C5.79807846,45.9149428 5.91355939,47.3112411 6.2138098,48.0559336 C6.30619455,48.4050082 6.42167548,48.7075395 6.53715641,48.9635275 C6.65263733,49.2195154 6.74502208,49.4755035 6.81431064,49.7314916 C7.06836868,50.0340228 7.32242672,50.1736528 7.53029239,50.1736528 C8.08460086,50.220196 8.70819788,49.5453185 9.40108345,48.1955635 C9.79371861,47.4275993 10.3018347,46.0313011 10.8792393,44.0299401 C11.4797402,42.0285792 12.1264334,39.7479587 12.8655113,37.1415351 C13.3043389,35.605607 13.7893588,33.999864 14.2743787,32.2777626 C14.7824947,30.578933 15.2906108,28.8335602 15.7987269,27.0881872 C16.306843,25.3195427 16.8380552,23.5741699 17.41546,21.8520685 C17.9697684,20.1299673 18.5702692,18.4544093 19.1938663,16.8486663 C20.5103488,13.3579205 21.8037353,10.5885955 23.0509293,8.56396299 C24.5521813,6.09716929 26.0534334,4.60778443 27.5546854,4.11908002 Z M106.91318,27.041644 C106.405064,26.9718291 106.104813,27.0183723 106.035525,27.2278172 C105.596697,28.135411 105.204062,29.1593631 104.857619,30.3229451 C104.511177,31.486527 104.210926,32.7897387 103.979964,34.2791236 C103.749003,35.7685084 103.541137,37.4440664 103.379464,39.3523408 C103.21779,41.2606152 103.125405,43.3783342 103.079213,45.7287697 C103.033021,45.7985846 103.056117,46.0313011 103.125405,46.4036473 L103.125405,46.4036473 L103.171598,46.4036473 C103.933772,46.2640174 104.67285,45.519325 105.365735,44.16957 C105.966236,43.1456179 106.474352,42.0983942 106.91318,41.074442 C107.352008,40.0272183 107.744643,39.0963528 108.067989,38.2818454 C108.460624,37.3277082 108.807067,36.5597442 109.084221,35.9546815 C109.361376,35.3728906 109.63853,34.9074578 109.93878,34.6281981 C110.008069,33.6973325 110.100454,32.7431954 110.239031,31.7890582 C110.354512,30.8349211 110.493089,29.9273271 110.654762,29.1128199 C110.469993,28.903375 110.285223,28.6939303 110.054261,28.4844856 C109.846396,28.2750409 109.592338,28.065596 109.292087,27.8561513 C108.206566,27.3907185 107.421296,27.1347306 106.91318,27.041644 Z M90.7227537,24.2257758 C90.3994071,24.1559608 90.0991567,24.1792324 89.8681948,24.2955906 C89.637233,24.4119489 89.4293672,24.598122 89.2907902,24.8541099 C89.152213,25.0868264 89.0598284,25.2497279 89.013636,25.3428144 C88.1590771,27.0881872 87.5123839,29.298993 87.0735563,32.0450463 C87.5123839,31.7890582 88.0435962,31.486527 88.6210008,31.1141807 C89.2215016,30.7418345 89.7758101,30.2764017 90.2839262,29.7178824 C90.7920423,29.1593631 91.2308698,28.5310288 91.5542164,27.8328797 C91.877563,27.1347306 91.9930439,26.3434948 91.877563,25.4824442 L91.877563,25.4824442 L91.877563,25.2264561 C91.4387355,24.6446652 91.0461003,24.3188623 90.7227537,24.2257758 Z M48.3181566,24.2257758 C47.9948099,24.1559608 47.6945595,24.1792324 47.4635977,24.2955906 C47.2326358,24.4119489 47.0247701,24.598122 46.8861931,24.8541099 C46.7476159,25.0868264 46.6552312,25.2497279 46.6090389,25.3428144 C45.7775762,27.0881872 45.130883,29.298993 44.6689592,32.0450463 C45.1077867,31.7890582 45.638999,31.486527 46.2164036,31.1141807 C46.8169045,30.7418345 47.371213,30.2764017 47.879329,29.7178824 C48.3874452,29.1593631 48.8262726,28.5310288 49.1496193,27.8328797 C49.4729658,27.1347306 49.5884467,26.3434948 49.4729658,25.4824442 L49.4729658,25.4824442 L49.4729658,25.2264561 C49.0341384,24.6446652 48.6415031,24.3188623 48.3181566,24.2257758 Z M27.9387047,14.7531734 L28.1551864,14.7542188 C28.7556871,14.8007621 29.3099956,14.9403919 29.8181118,15.19638 C30.3262278,15.4523679 30.7188629,15.8247142 30.9498249,16.2901469 C31.1807866,16.7788513 31.2731714,17.2908275 31.2269791,17.8726184 C31.1576905,18.4544093 30.9960172,19.0362003 30.6726706,19.6412629 C30.3493239,20.2463255 29.9335927,20.7815732 29.3792842,21.2237344 C28.8249757,21.6891672 28.2013787,21.8986119 27.5315893,21.8520685 C26.8617999,21.8055253 26.2151067,21.6658954 25.6377021,21.4099075 C24.9910089,21.1073761 24.2981232,20.7117583 23.6052377,20.2230539 C23.9516806,18.7802123 24.3674118,17.6631737 24.8524317,16.8719379 C25.3374517,16.0807022 25.8686639,15.5221829 26.4460685,15.19638 C27.000377,14.870577 27.5777817,14.7309472 28.1551864,14.7542188 Z M174.253199,14.6292734 L174.446427,14.6378606 C175.046929,14.6844039 175.601236,14.8240338 176.109353,15.0800217 C176.617468,15.3360098 177.010104,15.708356 177.241065,16.1737888 C177.472028,16.6624932 177.564413,17.1744693 177.51822,17.7562602 C177.448931,18.3147796 177.287259,18.8965705 176.963911,19.4783614 C176.640565,20.0368808 176.224833,20.5721285 175.670525,21.0142895 C175.116216,21.4797223 174.49262,21.6891672 173.822831,21.6658954 C173.129945,21.6426238 172.506348,21.5262657 171.905846,21.2935492 C171.259154,21.0375613 170.566268,20.6419435 169.873382,20.1066957 C170.219825,18.663854 170.635556,17.5468155 171.120576,16.7555797 C171.605596,15.9643441 172.136808,15.4058247 172.714214,15.0800217 C173.268522,14.7309472 173.869023,14.5913174 174.446427,14.6378606 Z" id="logo" fill="#010101" fill-rule="nonzero"></path>
    </g>
</svg>