<?xml version="1.0" encoding="UTF-8"?>
<svg width="369px" height="54px" viewBox="0 0 369 54" version="1.1" xmlns="http://www.w3.org/2000/svg" xmlns:xlink="http://www.w3.org/1999/xlink">
    <!-- Generator: Sketch 60 (88103) - https://sketch.com -->
    <title>logo</title>
    <desc>Created with Sketch.</desc>
    <g id="Page-1" stroke="none" stroke-width="1" fill="none" fill-rule="evenodd">
        <path d="M205.369764,0.571410722 C222.14968,0.571410722 233.379717,11.1239976 233.379717,26.9398501 C233.379717,42.7557025 222.14968,53.2822336 205.369764,53.2822336 C188.589848,53.2822336 177.359811,42.7296468 177.359811,26.9398501 C177.359811,11.1500534 188.589848,0.571410722 205.369764,0.571410722 Z M22.9272615,0.858024194 C34.8347484,0.858024194 42.3909217,5.9910109 44.2148256,15.2668651 L44.2148256,15.2668651 L32.4636733,15.2668651 C31.3432752,11.4627226 27.8257463,9.35220525 22.5885365,9.35220525 C17.429494,9.35220525 13.9640766,11.6190572 13.9640766,14.9802516 C13.9640766,18.0287767 16.5696536,19.1752306 21.3639153,20.2435172 L21.3639153,20.2435172 L30.9524387,22.301923 C36.9973773,23.5265442 40.0459024,24.8032769 42.1564198,27.0180174 L42.1564198,27.0180174 L42.3723199,27.2312829 C44.4305095,29.3390075 45.647893,32.7728685 45.647893,36.4502062 C45.647893,46.664068 37.1797677,53.0216759 23.5786557,53.0216759 C10.4986591,53.0216759 2.21292424,47.3154623 0.805912653,37.3361023 L0.805912653,37.3361023 L12.6091765,37.3361023 C13.8598535,42.1824756 17.5597728,44.5535507 23.891325,44.5535507 C29.5193713,44.5535507 33.1671791,42.0782525 33.1671791,38.1959428 C33.1671791,34.3396888 29.8841521,33.0108445 26.3405674,32.1770599 L26.3405674,32.1770599 L16.856267,30.0144309 C6.06917821,27.6954674 2.05658962,23.9694923 2.05658962,16.3351516 C2.05658962,6.64240516 9.84726488,0.858024194 22.9272615,0.858024194 Z M298.440975,43.6415987 L298.440975,52.8653413 L250.003298,52.8653413 L250.003298,43.6415987 L298.440975,43.6415987 Z M71.5733843,1.48336268 L71.5733843,52.3963375 L59.9003993,52.3963375 L59.9003993,1.48336268 L71.5733843,1.48336268 Z M136.035359,1.48336268 C152.424439,1.48336268 162.481966,11.1500534 162.481966,26.9398501 C162.481966,42.7296468 152.424439,52.3963375 136.035359,52.3963375 L136.035359,52.3963375 L117.040703,52.3963375 L117.040703,42.364866 L134.836794,42.364866 C144.894321,42.364866 150.574479,36.8149869 150.574479,26.9398501 C150.574479,17.0647132 144.868266,11.5148342 134.836794,11.5148342 L134.836794,11.5148342 L117.040703,11.5148342 L117.040703,1.48336268 Z M328.952281,1.48336268 L341.380884,17.9506094 L368.791554,52.3963375 L354.174267,52.3963375 L340.703434,34.5741907 L327.310768,52.3963375 L313.292764,52.3963375 L333.303595,26.2624 L314.334994,1.48336268 L328.952281,1.48336268 Z M205.369764,10.9155515 C195.78124,10.9155515 189.267298,17.429494 189.267298,26.9398501 C189.267298,36.4502062 195.78124,42.9641487 205.369764,42.9641487 C214.958287,42.9641487 221.47223,36.4502062 221.47223,26.9398501 C221.47223,17.429494 214.958287,10.9155515 205.369764,10.9155515 Z M261.676283,1.27491652 L261.676283,12.557065 C261.676283,20.2695729 265.793095,23.8652692 274.469666,23.8652692 C283.146238,23.8652692 287.263049,20.2695729 287.263049,12.557065 L287.263049,1.27491652 L298.414919,1.27491652 L298.414919,14.4330804 C298.414919,27.0180174 289.66018,34.1312426 274.156997,34.1312426 C258.705925,34.1312426 250.003298,27.0180174 250.003298,14.4330804 L250.003298,1.27491652 L261.676283,1.27491652 Z M367.905658,0.467187642 L360.610042,10.6028822 L346.82654,10.6028822 L354.122155,0.467187642 L367.905658,0.467187642 Z" id="logo" fill="#FFFFFF" fill-rule="nonzero"></path>
    </g>
</svg>