<?xml version="1.0" encoding="UTF-8"?>
<svg width="668px" height="164px" viewBox="0 0 668 164" version="1.1" xmlns="http://www.w3.org/2000/svg" xmlns:xlink="http://www.w3.org/1999/xlink">
    <!-- Generator: Sketch 60 (88103) - https://sketch.com -->
    <title>logo-white</title>
    <desc>Created with Sketch.</desc>
    <g id="Page-1" stroke="none" stroke-width="1" fill="none" fill-rule="evenodd">
        <path d="M169.646412,23.5688623 C172.732062,23.3010343 176.890983,23.6358193 182.123172,24.5732172 C184.605108,25.1758301 186.215013,26.3140991 186.952886,28.1219379 C187.690759,29.9297768 187.959077,32.4741426 187.757838,35.9559064 C187.5566,39.4376701 187.087045,43.7898749 186.349172,49.1464346 C185.54422,54.5029938 184.940505,60.9978223 184.40387,68.5639628 C184.806347,67.2917802 185.410061,65.8856834 186.147934,64.4795863 C189.770219,55.3064778 193.392505,47.6733804 197.01479,41.5133369 C201.509107,33.6793685 205.802185,28.9923789 209.826947,27.452368 C211.63809,26.581927 213.583391,26.5149701 215.595772,27.251497 C219.754692,27.586282 222.706183,29.0593359 224.383167,31.6037017 C226.12723,34.1480675 226.932183,37.2950463 226.798024,41.111595 C226.730945,44.8611868 225.858913,49.0794772 224.181929,53.632553 C222.572025,58.1856287 220.425485,62.8056613 217.87647,67.425694 C216.534883,70.505716 214.790819,73.8535656 212.778438,77.4022863 C212.040565,78.6744693 210.766058,80.683179 208.686598,83.4284157 C206.875455,86.1066956 204.930154,88.5171474 202.783614,90.7936855 C203.320249,90.4589002 204.25936,90.0571585 205.600947,89.7223736 C206.875455,89.3206314 208.48536,89.3875883 210.296502,89.7893305 C212.107645,90.1910722 214.052946,91.1954273 216.199486,92.8023952 C218.346025,94.4093631 220.559644,97.0206861 222.773263,100.569407 C224.450247,103.448557 225.590596,106.930321 226.12723,111.014698 C226.663865,115.099074 226.663865,119.451279 226.060151,123.937398 C225.456437,128.490474 224.383167,132.976592 222.840342,137.395754 C221.297517,141.881872 219.352215,145.832335 216.937359,149.247142 C214.522502,152.661949 211.772248,155.407185 208.686598,157.415896 C205.600947,159.424605 202.246979,160.362003 198.624694,160.094175 L198.624694,160.094175 L198.624694,159.893304 C196.276917,159.893304 194.063298,158.420251 191.983838,155.474143 C189.904378,152.528035 187.824918,147.841045 185.678378,141.413174 C183.934315,136.391399 182.056093,133.311377 179.909554,131.972237 C179.507077,137.797496 179.171681,142.953184 178.970442,147.439303 C178.769205,151.925422 178.567966,155.407185 178.366728,157.75068 C178.16549,158.688079 177.830093,159.625476 177.427618,160.495917 C176.958062,161.433315 176.354348,162.102885 175.482316,162.571584 C173.872412,163.642896 172.329586,164.111595 170.85384,163.977681 C169.378095,163.843767 167.969428,162.839412 166.560762,160.964616 C165.219175,159.022863 163.944667,156.009799 162.737238,151.858465 C161.596889,147.707131 160.45654,142.1497 159.38327,135.119216 C158.444159,128.825258 157.840445,121.794774 157.572127,113.960806 C157.505048,113.090365 157.505048,112.152967 157.505048,111.282526 C156.29762,112.956451 155.090191,114.563418 153.815684,116.304301 C150.260478,121.058247 146.973589,125.477409 143.887939,129.628742 C138.52159,136.726184 134.027274,140.743604 130.270829,141.547088 C129.801274,141.681002 129.465877,141.747959 129.130481,141.814916 C128.795083,141.881872 128.392607,141.881872 127.990131,141.881872 L127.520576,141.881872 C126.246068,142.082744 124.703243,141.747959 122.757941,140.810561 C120.879719,139.873163 119.001497,138.667937 117.190355,137.194883 C115.379212,135.721829 113.836387,134.114861 112.42772,132.373979 C111.019054,130.633097 110.214102,129.02613 110.012864,127.486119 C109.409149,123.468699 109.073753,119.317365 109.140832,115.099074 C109.207911,114.898204 109.207911,114.76429 109.207911,114.563418 C109.073753,114.76429 109.006673,114.965161 108.872515,115.166032 C106.793054,118.714752 104.713594,122.263473 102.567055,125.67828 C100.487595,129.160043 98.3410554,132.240065 96.194516,135.119216 C90.8952466,142.015787 86.4009299,145.96625 82.7786444,147.037561 C81.6382954,147.50626 80.4979464,147.573217 79.4246767,147.238432 C78.3514069,147.104518 77.4122961,146.83669 76.6744231,146.501905 C75.93655,146.16712 75.3328359,145.899292 74.93036,145.631464 C72.4484234,144.426238 70.1677255,142.752314 67.9541068,140.542733 C65.8075673,138.333152 64.0635038,135.654872 62.7889963,132.440937 C61.4474091,128.892215 60.5753776,125.477409 60.0387427,122.196516 C59.5021078,118.915623 59.2337904,115.500817 59.2337904,112.019053 C59.2337904,108.537289 59.5021078,104.854655 59.971663,100.971149 C60.4412186,97.087643 61.1120124,92.8693521 61.984044,88.2493195 C62.6548373,84.2318997 63.4597896,81.1518781 64.3989009,79.0762111 C65.3380117,77.0005445 66.3442022,75.5274904 67.3503926,74.6570496 C68.3565827,73.7866087 69.3627732,73.3179096 70.301884,73.3179096 L70.301884,73.3179096 L72.8508998,73.3179096 C74.8632803,73.3179096 76.5402642,73.7196518 77.8818513,74.4561785 C79.2234385,75.2596624 80.2967082,76.1301033 81.1687402,77.0675014 C82.107851,78.1388134 82.845724,79.3440391 83.3823589,80.6162221 C82.107851,83.4953731 81.1016605,87.3119217 80.3637879,92.1997823 C79.6259148,97.087643 79.08928,102.109417 78.6197244,107.265106 C78.1501688,112.420795 77.948931,117.308656 77.8818513,121.928688 C77.8818513,126.548721 77.948931,130.097442 78.1501688,132.440937 C78.3514069,134.315732 78.8880418,135.989657 79.827153,137.395754 C80.6991846,138.801851 81.7724543,140.074034 82.7786444,141.078389 C85.2605809,139.739249 88.4133104,136.525313 92.2368337,131.436581 C95.3224844,127.285248 98.5422936,122.531301 101.762103,117.040828 C104.780674,112.019053 107.463848,107.265106 109.945784,102.645073 C110.415339,98.7615677 110.951974,95.011976 111.555689,91.4632553 C112.159403,87.9145346 112.696038,84.7675557 113.232673,82.0223189 C113.903466,78.0048991 115.110895,74.5900927 116.854958,71.7109417 C118.666101,68.8317908 120.544323,66.62221 122.556703,64.9482852 C124.636163,63.2743604 126.514385,62.1360916 128.258449,61.3995645 C130.002512,60.6630375 131.27702,60.3282526 132.014893,60.3282526 C134.832226,60.5291237 137.314162,61.1317365 139.259463,62.0021774 C141.271844,62.8726182 142.881748,63.9439302 144.156256,65.2161132 C145.430764,66.4213394 146.436954,67.6265651 147.040669,68.8317908 C147.644383,70.0370169 148.113939,70.9744147 148.315176,71.7109417 C148.382256,71.8448559 148.449335,72.1126839 148.449335,72.4474688 L148.449335,72.4474688 L148.583494,72.6483399 C149.321367,80.2144803 146.101558,86.9101795 138.991146,92.7354383 C136.911686,94.3424062 134.899305,95.6815461 133.021083,96.6189439 C131.142861,97.6232989 129.801274,98.1589549 128.929242,98.4267829 C128.325528,105.39031 127.855973,114.027763 127.520576,124.205226 C127.520576,124.473054 127.520576,125.00871 127.654734,125.812194 C127.788893,126.615678 127.855973,127.620033 127.990131,128.825258 C128.12429,130.030485 128.191369,131.302667 128.325528,132.57485 C128.392607,133.91399 128.459687,135.119216 128.459687,136.324442 C128.862163,136.324442 129.19756,136.257485 129.398798,136.123571 C132.081972,135.587915 135.637178,132.240065 140.131495,125.946108 C143.217146,121.794774 146.571113,117.375612 150.05924,112.621666 C152.675334,109.072945 155.090191,105.792052 157.437969,102.645073 C157.437969,98.4937398 157.505048,94.2754489 157.639207,90.0571585 C157.907525,81.955362 158.310001,74.0544367 158.846635,66.2874251 C159.38327,58.5204136 159.919905,51.5568864 160.590699,45.5307565 C161.194413,39.5046271 161.798127,34.6167665 162.401841,30.8671747 C163.005556,27.117583 163.408032,25.1758301 163.743428,24.9080022 C164.61546,24.3053892 166.560762,23.8366903 169.646412,23.5688623 Z M213.65047,32.5410996 C212.979677,32.3402286 212.308883,32.4071856 211.57101,32.7419706 C210.766058,33.0767556 209.692788,33.8132825 208.48536,34.8845944 C207.210852,35.9559064 205.735106,37.7637452 203.991043,40.241154 C202.246979,42.7185629 200.301678,46.0664125 198.088059,50.2847034 C195.94152,54.5029938 193.526663,59.9265108 190.843489,66.5552531 C189.367743,70.3718018 187.959077,74.0544367 186.617489,77.6701143 C185.275902,81.2857918 184.135553,84.4997277 183.196442,87.3788786 C182.793966,93.672836 182.324411,100.167665 181.921934,106.863364 C181.519458,113.559064 181.049903,119.986935 180.513268,126.013065 C184.605108,127.084377 188.026156,131.503538 190.776409,139.337507 C192.050917,143.020142 193.191266,145.899292 194.130377,147.908002 C195.069488,149.916712 195.94152,151.389766 196.679393,152.327164 C197.417266,153.264562 197.9539,153.800218 198.356377,154.001089 C198.758853,154.20196 198.960091,154.268917 199.09425,154.268917 C199.161329,154.268917 199.496726,154.068046 199.966281,153.733261 C200.435837,153.398476 201.10663,152.394121 201.978662,150.787153 C202.850694,149.180185 203.789805,146.769733 204.863074,143.48884 C205.869265,140.207948 207.076693,135.654872 208.351201,129.695699 C209.156153,125.745237 209.625709,122.263473 209.759867,119.183451 C209.759867,114.697333 209.49155,110.679913 208.820757,107.265106 C208.149963,104.988568 207.345011,103.113772 206.4059,101.573761 C205.399709,100.100708 204.32644,98.8285246 203.186091,97.9580838 C201.978662,97.087643 200.905392,96.4180728 199.899202,96.016331 C198.893012,95.6145888 198.02098,95.3467608 197.350186,95.2128471 C196.679393,95.0789328 196.276917,95.011976 196.142758,95.011976 C194.86825,94.744148 194.130377,93.8737071 193.79498,92.4006534 C193.593742,90.7267282 194.130377,89.7893305 195.539044,89.5215025 C196.612314,89.1197603 198.02098,87.9814915 199.697964,86.1066956 C204.32644,79.7457813 207.747487,73.6526945 209.961106,67.8943931 C212.241804,62.1360916 213.71755,56.9134457 214.388343,52.293413 C215.059137,47.6733804 215.260375,43.722918 214.857899,40.3081111 C214.455422,36.8933043 214.052946,34.3489385 213.65047,32.5410996 Z M453.727489,-2.7000624e-13 C455.404473,-2.7000624e-13 457.014379,0.468698965 458.423046,1.3391399 C459.898789,2.20958084 460.972061,3.68263473 461.642854,5.69134458 C462.313646,7.70005442 462.112411,10.5122482 460.90498,14.060969 C460.368346,15.6009799 459.563395,18.3462167 458.423046,22.2297224 C457.349773,26.1132281 456.142347,30.9341317 455.001997,36.6254763 C456.410664,36.6254763 457.752249,36.6254763 459.160915,36.5585193 C460.569582,36.4915623 461.911171,36.4246053 463.319837,36.2906913 C469.289901,35.6880784 473.582978,34.8845944 476.131994,33.8132825 C478.681009,32.7419706 480.357993,31.6706587 481.230025,30.5993468 C482.370375,29.3271639 483.510724,29.3271639 484.718151,30.5993468 C485.724341,31.7376157 485.791423,33.0767556 484.852309,34.4828525 C481.230025,38.5002722 474.186693,40.977681 463.722313,41.7811649 C462.045329,41.9150789 460.368346,41.9820359 458.691363,42.0489929 C457.081456,42.1159499 455.337396,42.1159499 453.660408,42.1159499 C452.3859,48.6777355 451.245555,55.8421337 450.239364,63.7430595 C449.233173,71.6439848 448.696539,79.8127382 448.629458,88.3832337 C448.562381,96.8867719 449.099015,105.591181 450.239364,114.362548 C451.379714,123.133914 453.392091,131.637453 456.410664,139.806206 C456.947298,141.145346 457.483932,142.283615 458.154729,143.221012 C458.691363,144.158411 459.295074,144.961894 459.898789,145.631464 C460.569582,146.301034 461.173297,146.635819 461.844089,146.635819 C462.917362,145.564507 463.856471,144.024496 464.728504,142.015787 C465.801772,139.136636 467.143361,135.654872 468.820344,131.503538 C470.430251,127.352205 472.174311,123 473.985453,118.513881 C475.796599,114.027763 477.607741,109.474687 479.351802,104.988568 C481.095867,100.435493 482.77285,96.4180728 484.248598,92.8693521 C485.456024,89.8562874 486.462215,87.3788786 487.334248,85.3032116 C487.870882,82.6918891 488.407516,80.415351 489.14539,78.8753404 C490.084499,76.8666303 491.09069,75.3266193 492.096881,74.4561785 C493.103072,73.5857376 494.109263,73.1170385 495.048372,73.1170385 L495.048372,73.1170385 L497.597388,73.1170385 C499.60977,73.1170385 501.286753,73.4518238 502.628338,74.2553074 C503.969928,75.0587913 505.043196,75.9292326 505.915228,76.8666303 C506.854342,77.9379423 507.592212,79.1431684 508.12885,80.415351 C506.854342,83.294502 505.848151,87.1110506 505.110277,91.9989112 C504.372403,96.8867719 503.768688,101.908547 503.366212,107.064235 C502.89666,112.219924 502.69542,117.107784 502.628338,121.727817 C502.628338,126.34785 502.69542,129.89657 502.89666,132.240065 C503.097895,134.114861 503.634529,135.788786 504.573643,137.194883 C505.512753,138.60098 506.518944,139.873163 507.72637,140.944475 C510.208309,139.605335 513.361036,136.391399 517.184559,131.302667 L517.184559,131.302667 L517.184559,131.101797 C517.385799,130.967882 518.660307,129.628742 520.873925,127.084377 C523.154623,124.540011 526.307355,121.259118 530.332114,117.375612 C534.021479,113.559064 538.784113,109.139902 544.552937,104.185084 C550.321765,99.1633099 556.828459,94.2754489 564.073031,89.3875883 C580.507475,78.2057702 596.405281,70.8405009 611.900612,67.2917802 C631.487787,62.8056613 649.666292,64.3456724 666.436131,71.9118128 C667.039846,72.1126839 667.509399,72.5813826 667.777716,73.3179096 C668.046037,73.9874794 668.046037,74.7240064 667.911874,75.6614046 C667.643557,76.3979312 667.174005,76.9335872 666.503208,77.2014152 C665.899497,77.5362005 665.295781,77.4692432 664.759147,77.1344583 C655.703433,73.1170385 646.64772,70.9074578 637.659087,70.6396298 C628.603373,70.3718018 619.950135,71.2422426 611.498136,73.3179096 C603.046138,75.3935766 595.063696,78.3396845 587.483726,82.1562331 C579.90376,85.9727818 572.994586,89.9232442 566.823287,94.0745782 C560.249507,98.5606966 554.212366,103.180729 548.711859,107.867719 C543.278429,112.554709 538.448718,116.906913 534.423955,120.790419 C530.399195,124.673925 527.179387,127.954818 524.831607,130.566141 C522.483831,133.177463 521.209323,134.650517 521.008083,134.985302 C518.324909,138.667937 515.977133,141.480131 513.830593,143.28797 C511.684052,145.095808 509.671675,146.301034 507.72637,146.903647 C506.586021,147.372346 505.445676,147.439303 504.372403,147.104518 C503.299135,146.970604 502.360021,146.702776 501.622152,146.367991 C500.884278,146.033206 500.280562,145.765378 499.878087,145.49755 C497.396153,144.292324 495.048372,142.618399 492.834755,140.408819 C490.621138,138.199238 488.877073,135.520958 487.736723,132.307022 C486.462215,128.758302 485.523106,125.343495 484.91939,122.062602 C484.315675,118.781709 484.047358,115.366902 484.114439,111.885139 C484.181517,109.943386 484.449834,107.800762 484.583992,105.725095 C484.382756,106.193794 484.181517,106.662493 483.980281,107.198149 C482.236216,111.684268 480.425074,116.170386 478.613932,120.656505 C476.802786,125.142624 475.125803,129.494829 473.448819,133.646162 C471.771836,137.797496 470.430251,141.27926 469.356978,144.158411 C467.210438,149.648884 464.19187,152.795863 460.234188,153.599347 C459.965871,153.733261 459.563395,153.800218 459.227997,153.800218 L459.227997,153.800218 L458.221806,153.800218 C456.678981,153.800218 455.203233,153.53239 453.794567,152.996734 C452.3859,152.461078 451.044315,151.791508 449.903966,151.054981 C448.696539,150.251497 447.623267,149.51497 446.684157,148.711486 C445.745044,147.908002 445.007174,147.305389 444.47054,146.83669 C443.531426,146.16712 442.525235,144.82798 441.451967,142.752314 C440.378699,140.676647 439.104191,137.328797 437.628443,132.57485 C436.219777,127.954818 435.213586,122.732172 434.475714,117.308656 C433.335365,121.459989 432.127936,125.611323 430.786349,129.695699 C429.176445,134.58356 427.700698,138.266195 426.292032,140.743604 C423.877175,145.028851 420.187811,147.171475 415.425176,147.171475 C414.955621,147.171475 414.620224,147.171475 414.217748,147.104518 C413.815272,147.037561 413.412796,147.037561 413.010319,147.037561 C412.071209,146.83669 411.199177,146.635819 410.394224,146.434948 C409.589272,146.301034 408.918479,146.100163 408.247685,145.832335 C407.375653,145.698422 406.570701,145.363636 405.832828,144.761023 L405.832828,144.761023 L405.497431,144.426238 C405.363273,144.426238 405.162035,144.225367 404.826638,143.890583 C402.411781,142.015787 400.667718,139.538378 399.728607,136.59227 C398.454099,133.378334 397.649146,128.959173 397.31375,123.401742 C395.703845,127.352205 393.356068,130.164398 390.270417,131.972237 C388.995909,132.775721 387.654322,133.311377 386.245656,133.579205 C384.836989,133.780076 383.495402,133.91399 382.220894,133.91399 C381.483022,133.91399 380.745149,133.91399 380.074355,133.847033 C379.336482,133.780076 378.732768,133.713119 378.061974,133.579205 C376.586229,133.579205 374.842165,133.24442 372.896864,132.507893 C370.884483,131.771366 369.006261,130.833969 367.195119,129.561786 C365.383976,128.356559 363.841151,126.950463 362.566643,125.410452 C362.231246,125.00871 362.097087,124.673925 361.82877,124.272183 C360.420103,127.820904 359.078516,131.369625 357.804008,134.650517 C354.382961,143.087099 351.096073,148.309744 347.876264,150.318454 C346.400518,151.389766 344.388137,151.925422 341.906201,151.925422 C339.357185,151.925422 336.80817,151.389766 334.124996,150.251497 C331.5089,149.113228 328.959885,147.439303 326.477949,145.162766 C324.063092,142.953184 322.18487,140.007077 320.910362,136.458356 C319.770013,133.512248 319.03214,129.963527 318.696743,125.879151 C318.428426,121.794774 318.361347,117.442569 318.562585,112.956451 C317.556394,115.43386 316.348966,118.179096 315.074458,121.125204 C313.79995,124.138269 312.257125,127.151334 310.445983,130.231355 C307.695729,135.587915 304.341761,138.534023 300.384079,139.136636 C300.182841,139.27055 299.780365,139.337507 299.24373,139.337507 C298.908333,139.337507 298.640016,139.27055 298.438777,139.136636 C297.030111,139.136636 295.353127,138.667937 293.407826,137.797496 C291.395445,136.927055 289.517223,135.721829 287.706081,134.315732 C285.894938,132.909635 284.352112,131.369625 283.144684,129.628742 C281.937256,127.887861 281.333541,126.280893 281.333541,124.740882 C281.53478,119.451279 281.937256,114.496462 282.406811,109.742515 C280.796907,111.952096 279.119923,114.228634 277.37586,116.572129 C273.820653,121.326075 270.533765,125.745237 267.448115,129.89657 C262.081766,136.994012 257.587449,141.011432 253.831005,141.814916 C253.36145,141.94883 253.026053,142.015787 252.690656,142.082744 C252.355259,142.1497 251.952783,142.1497 251.550307,142.1497 L251.080752,142.1497 C249.806244,142.350571 248.263418,142.015787 246.318117,141.078389 C244.439895,140.140991 242.561673,138.935765 240.75053,137.462711 C238.939388,135.989657 237.396563,134.382689 235.987896,132.641807 C234.57923,130.900925 233.774277,129.293958 233.573039,127.753947 C232.969325,123.736527 232.633928,119.585193 232.701008,115.366902 C232.768087,111.215569 233.036404,107.064235 233.50596,103.113772 C233.975515,99.0963526 234.51215,95.3467608 235.115865,91.7980401 C235.719579,88.2493195 236.256214,85.102341 236.792848,82.3571038 C237.463642,78.3396845 238.671071,74.9248775 240.415134,72.0457266 C242.226276,69.1665761 244.104498,66.9569953 246.116879,65.2830701 C248.196339,63.6091453 250.074561,62.4708765 251.818624,61.7343494 C253.562688,60.9978223 254.837195,60.6630375 255.575068,60.6630375 C258.392402,60.8639086 260.874338,61.4665214 262.819639,62.3369623 C264.83202,63.2074035 266.441924,64.2787155 267.716432,65.5508981 C268.99094,66.7561242 269.99713,67.9613499 270.600845,69.1665761 C271.204559,70.3718018 271.674114,71.3092 271.875352,72.0457266 C271.942432,72.1796408 272.009511,72.4474688 272.009511,72.7822537 L272.009511,72.7822537 L272.143669,72.9831248 C272.881543,80.5492652 269.661733,87.2449648 262.551322,93.0702232 C260.471861,94.6771911 258.459481,96.016331 256.581259,96.9537287 C254.703037,97.9580838 253.36145,98.4937398 252.489418,98.7615677 C251.885704,105.725095 251.416148,114.362548 251.080752,124.540011 C251.080752,124.807839 251.080752,125.343495 251.21491,126.146979 C251.349069,126.950463 251.416148,127.954818 251.550307,129.160043 C251.684466,130.36527 251.751545,131.637453 251.885704,132.909635 C251.952783,134.248775 252.019862,135.454001 252.019862,136.659227 C252.422338,136.659227 252.757736,136.59227 252.958973,136.458356 C255.642148,135.9227 259.197353,132.57485 263.691671,126.280893 C266.777321,122.129559 270.131289,117.710397 273.619416,112.956451 C277.107542,108.202504 280.394431,103.783343 283.345922,99.7659228 C283.480081,99.4980948 283.748398,99.2302668 283.882557,99.0293957 C284.352112,95.8824168 284.754589,92.6684814 285.291224,89.5884594 C285.894938,85.5710396 287.035287,82.1562331 288.645191,79.2770822 C290.255096,76.3979312 291.93208,74.1883505 293.743223,72.5144257 C295.554365,70.9074578 297.231349,69.7022321 298.841254,68.8987481 C300.384079,68.162221 301.591507,67.7604788 302.32938,67.7604788 C302.664777,67.7604788 302.933095,67.7604788 303.201412,67.8274362 C303.469729,67.8943931 303.738047,67.8943931 304.073444,67.8943931 C307.494491,68.0283068 310.848459,69.1665761 314.202426,71.3761569 C317.556394,73.5187807 320.373727,75.6614046 322.587346,77.6701143 C322.587346,77.5362005 322.587346,77.4692432 322.654426,77.4022863 C322.721505,77.3353294 322.721505,77.2014152 322.721505,76.9335872 C323.392298,72.9161679 324.197251,69.8361458 325.136362,67.7604788 C326.075473,65.6848123 327.081663,64.2117581 328.154933,63.4082742 C329.228202,62.5378334 330.234393,62.1360916 331.173504,62.1360916 L331.173504,62.1360916 L333.588361,62.1360916 C335.600741,62.1360916 337.277725,62.4708765 338.619313,63.2074035 C339.9609,63.8769733 341.034169,64.7474141 341.906201,65.6848123 C342.845312,66.7561242 343.583185,67.9613499 344.11982,69.233533 C343.247788,71.1752858 342.442836,73.9205225 341.704963,77.5362005 C340.96709,81.1518781 340.296296,85.1692978 339.692582,89.6554163 C339.088868,94.1415351 338.552233,98.7615677 338.015598,103.649428 C337.478963,108.537289 337.076487,113.090365 336.80817,117.442569 C336.539852,121.794774 336.405693,125.611323 336.271535,129.02613 C336.137376,132.373979 336.137376,134.851388 336.271535,136.391399 C336.472773,138.60098 337.143567,140.542733 338.283915,142.1497 C339.424265,143.756668 340.631693,145.095808 342.04036,146.16712 C342.576994,146.16712 343.113629,146.16712 343.650264,146.100163 C344.186899,146.033206 344.723534,145.832335 345.394328,145.49755 C347.607946,144.225367 350.291121,139.873163 353.376771,132.507893 C355.322072,127.486119 357.401532,122.196516 359.615151,116.572129 C359.816389,115.969516 360.017628,115.43386 360.285945,114.831246 C360.151786,110.74687 360.084707,106.72945 360.218865,102.912901 C360.420103,97.1545998 360.7555,91.3962984 361.157977,85.7049538 C361.359214,83.4284157 361.426294,80.683179 361.292135,77.3353294 C361.157977,73.9874794 361.359214,71.2422426 361.895849,68.965705 C362.432484,66.8230811 364.042389,65.8187261 366.725563,66.086554 C369.408737,66.354382 372.561467,67.2248229 376.317911,68.7648339 C377.324101,69.1665761 378.061974,69.8361458 378.665688,70.8405009 C379.202323,71.8448559 379.671879,72.9161679 380.007276,74.1213936 C380.342673,75.3266193 380.54391,76.4648886 380.678069,77.6701143 C380.812228,78.8753404 380.812228,79.879695 380.678069,80.683179 C379.806038,86.5084378 379.135244,92.8693521 378.732768,99.8998366 C378.263213,106.930321 378.464451,115.63473 379.202323,126.080022 C379.202323,126.682635 379.336482,127.419162 379.671879,128.222646 C380.812228,128.490474 382.153815,128.557431 383.562481,128.490474 C385.038228,128.423517 386.513973,127.954818 387.989719,127.151334 C390.874131,125.410452 392.819433,122.129559 393.892703,117.375612 C394.362258,115.032117 394.764734,113.224279 394.898893,111.885139 C395.033052,110.612956 395.16721,109.340773 395.301369,108.001633 C395.502607,106.72945 395.770924,105.256396 396.039242,103.582471 C396.307559,101.908547 396.710036,99.6989659 397.246671,96.819815 C397.514988,90.7936855 397.984544,84.9684267 398.588258,79.4779533 C399.124893,73.9874794 399.728607,69.1665761 400.3994,65.1491563 C401.137273,61.1317365 402.009305,58.0517149 402.948416,55.9760479 C403.887527,53.900381 404.893717,52.4273273 405.899908,51.6238433 C406.906098,50.7534025 407.912288,50.3516603 408.851399,50.3516603 L408.851399,50.3516603 L411.400415,50.3516603 C413.412796,50.3516603 415.08978,50.6864451 416.431367,51.4229722 C417.772954,52.0925424 418.846224,52.9629832 419.718255,53.900381 C420.657366,54.9716929 421.395239,56.176919 421.931874,57.4491016 C421.059842,59.3238975 420.25489,62.4039196 419.584096,66.62221 C418.846224,70.8405009 418.242509,75.5944473 417.638795,80.951007 C417.035081,86.3075667 416.498446,91.8649975 416.09597,97.7572127 C415.693494,103.649428 415.358097,109.206859 415.156859,114.496462 C414.955621,119.786064 414.821462,124.33914 414.687303,128.356559 C414.553145,132.373979 414.620224,135.119216 414.821462,136.659227 C414.888541,137.328797 415.08978,138.199238 415.291017,139.136636 C415.492256,140.074034 415.894732,140.877518 416.565525,141.614044 C418.846224,141.27926 420.590287,140.007077 421.864795,137.864453 C422.736826,136.324442 423.675937,134.248775 424.682127,131.570495 C425.688318,128.892215 426.694508,125.946108 427.633619,122.732172 C428.63981,119.518236 429.511841,116.304301 430.450952,112.956451 C431.390063,109.675558 432.195016,106.662493 432.865809,103.984213 C432.932889,103.783343 432.932889,103.649428 432.999968,103.515515 C432.73165,98.5606966 432.597492,93.5389223 432.73165,88.3832337 C432.865809,80.2814372 433.335365,72.3135546 434.140317,64.3456724 C434.945269,56.3777897 435.884379,48.9455635 436.957651,41.9150789 C435.146509,41.7811649 433.469524,41.714208 431.926698,41.714208 L431.926698,41.714208 L428.304413,41.714208 C425.755397,41.9820359 423.944254,42.6516059 423.005144,43.8568317 C422.468509,44.7272726 422.200191,45.3968428 422.200191,45.9994556 C422.066032,46.4681547 422.066032,46.8029396 422.200191,47.0707676 C422.33435,47.9412084 422.133112,48.6107786 421.730636,49.2133914 C421.32816,49.8160043 420.791525,50.1507892 420.120731,50.2847034 L420.120731,50.2847034 L419.785334,50.2847034 C418.510827,50.2847034 417.638795,49.4812194 417.236319,47.9412084 C417.236319,47.6733804 417.236319,46.8029396 417.370478,45.2629286 C417.504636,43.722918 418.108351,42.1159499 419.315779,40.4420251 C421.059842,37.9646162 423.944254,36.4915623 427.969016,36.1567773 L427.969016,36.1567773 L432.195016,36.1567773 C433.871999,36.1567773 435.75022,36.2237344 437.89676,36.3576483 C439.03711,29.7958628 440.177459,24.1714752 441.384886,19.3505716 C442.525235,14.5296679 443.531426,11.0479042 444.403459,8.77136636 C445.275491,6.76265651 446.2146,5.02177461 447.153714,3.68263473 C448.092824,2.34349483 449.099015,1.3391399 450.038124,0.736526945 C450.775998,0.26782798 452.050506,-2.7000624e-13 453.727489,-2.7000624e-13 Z M80.0283908,11.8513881 C80.7662638,11.6505171 81.4370576,11.6505171 82.0407717,12.0522591 C82.6444859,12.4540011 83.0469618,13.056614 83.2482,13.860098 C83.5165174,14.5966249 83.4494382,15.2661949 83.1140415,16.0027218 C82.7786444,16.6722918 82.2420099,17.1409907 81.5041369,17.4088187 C75.1315977,19.4175286 68.0882652,30.5993468 60.3070601,50.6864451 C58.6300759,55.172564 56.953092,59.8595535 55.2761082,64.8143714 C53.6662036,69.7691889 52.056299,74.7240064 50.5805533,79.6788244 C49.1048072,84.7005988 47.6961408,89.5884594 46.2874744,94.47632 C44.878808,99.2972237 43.5372208,103.917256 42.2627129,108.336418 C40.0490942,116.237344 38.0367134,123.133914 36.2926501,128.959173 C34.5485868,134.784431 33.0057616,139.002722 31.7312538,141.614044 C28.6456034,147.171475 25.4257943,149.983669 22.0047471,149.983669 L22.0047471,149.983669 L21.6693503,149.983669 C21.0656361,149.983669 20.5960806,149.916712 20.3948425,149.782798 L20.3948425,149.782798 L19.925287,149.782798 C18.6507792,149.314099 17.2421127,148.577572 15.6992875,147.573217 C14.1564623,146.568862 12.6136371,144.961894 11.0708119,142.752314 C9.52798665,140.542733 7.98516144,137.462711 6.57649494,133.579205 C5.16782844,129.628742 3.89332066,124.540011 2.82005093,118.246053 C1.94801929,112.688623 1.27722576,106.327708 0.874749607,99.2972237 C0.472273458,92.1997823 0.203956025,85.0353836 0.0697973087,77.7370712 C-0.0643614076,70.4387587 0.00271792859,63.3413173 0.203956025,56.3777897 C0.405194078,49.4142625 0.67351151,43.1872618 1.00890832,37.6967882 C1.27722576,32.2063146 1.61262252,27.787153 1.94801929,24.3723462 C2.28341611,21.0244965 2.55173354,19.2166576 2.75297159,18.9488296 C3.08836836,18.7479586 3.75916194,18.1453457 4.69827296,17.2749047 C5.63738393,16.4044638 6.91189171,15.6679369 8.5217963,15.0653239 C10.1317009,14.4627109 12.0770022,14.26184 14.290621,14.5296679 C16.5713192,14.7974959 19.1874141,15.8688078 22.1389058,17.7436037 C23.8829691,18.8149156 25.3587149,20.1540555 26.6332227,21.7610234 C27.9077305,23.3679913 28.7126828,25.5775721 29.1822383,28.3228089 C29.6517938,31.0680457 29.5847144,34.7506804 29.1151589,39.1698421 C28.5785241,43.6559606 27.5723337,49.2803483 25.9624291,56.176919 C24.1512865,63.8769733 22.6084613,72.1126839 21.2668741,80.7501359 C19.9923664,89.4545456 18.9190967,97.6902558 18.1812237,105.524224 C17.4433508,113.358193 17.0408746,120.187806 16.9067159,126.146979 C16.8396366,132.106151 17.1750334,136.123571 18.047065,138.266195 C18.3153824,139.27055 18.6507792,140.140991 18.986176,140.877518 C19.3215728,141.614044 19.5898902,142.350571 19.7911283,143.087099 C20.5290012,143.957539 21.2668741,144.359282 21.8705883,144.359282 C23.4804929,144.493195 25.2916356,142.551443 27.3040163,138.667937 C28.4443653,136.458356 29.9201112,132.440937 31.5970951,126.682635 C33.3411584,120.924333 35.2193804,114.362548 37.3659198,106.863364 C38.6404278,102.444203 40.0490942,97.82417 41.4577606,92.8693521 C42.9335063,87.9814915 44.4092524,82.9597171 45.884998,77.9379423 C47.3607441,72.8492105 48.903569,67.8274362 50.5805533,62.8726182 C52.1904579,57.9178007 53.934521,53.096897 55.7456638,48.4768644 C59.5691871,38.4333152 63.3256311,30.4654328 66.9479163,24.6401742 C71.3080744,17.5427327 75.6682326,13.257485 80.0283908,11.8513881 Z M310.513062,77.8040285 C309.037316,77.6031574 308.165284,77.7370712 307.964046,78.3396845 C306.689539,80.951007 305.54919,83.8971148 304.542999,87.2449648 C303.536809,90.5928144 302.664777,94.3424062 301.993983,98.627654 C301.32319,102.912901 300.719476,107.733805 300.24992,113.224279 C299.780365,118.714752 299.512047,124.807839 299.377889,131.570495 C299.24373,131.771366 299.310809,132.440937 299.512047,133.512248 L299.512047,133.512248 L299.646206,133.512248 C301.859825,133.110506 304.006364,130.967882 306.018745,127.084377 C307.762808,124.138269 309.238554,121.125204 310.513062,118.179096 C311.78757,115.166032 312.927919,112.487752 313.86703,110.144257 C315.007379,107.39902 316.013569,105.189439 316.818521,103.448557 C317.623474,101.774632 318.428426,100.435493 319.300457,99.6320086 C319.501696,96.9537287 319.770013,94.208492 320.172489,91.4632553 C320.507886,88.7180185 320.910362,86.1066956 321.379918,83.763201 C320.843283,83.1605877 320.306648,82.5579749 319.635855,81.955362 C319.03214,81.3527492 318.294267,80.7501359 317.422235,80.147523 C314.269506,78.8083831 311.988808,78.0718565 310.513062,77.8040285 Z M263.490432,69.7022321 C262.551322,69.501361 261.67929,69.5683178 261.008496,69.9031027 C260.337703,70.237888 259.733988,70.773544 259.331512,71.5100706 C258.929036,72.1796408 258.660719,72.6483399 258.52656,72.9161679 C256.044624,77.9379423 254.166402,84.298857 252.891894,92.1997823 C254.166402,91.4632553 255.709227,90.5928144 257.386211,89.5215025 C259.130274,88.4501906 260.740179,87.1110506 262.215925,85.5040827 C263.691671,83.8971148 264.966178,82.0892758 265.905289,80.0805661 C266.8444,78.0718565 267.179797,75.7953184 266.8444,73.3179096 L266.8444,73.3179096 L266.8444,72.5813826 C265.569893,70.9074578 264.429544,69.97006 263.490432,69.7022321 Z M140.332733,69.7022321 C139.393622,69.501361 138.52159,69.5683178 137.850797,69.9031027 C137.180003,70.237888 136.576289,70.773544 136.173813,71.5100706 C135.771337,72.1796408 135.503019,72.6483399 135.368861,72.9161679 C132.954004,77.9379423 131.075782,84.298857 129.734195,92.1997823 C131.008702,91.4632553 132.551527,90.5928144 134.228511,89.5215025 C135.972575,88.4501906 137.582479,87.1110506 139.058225,85.5040827 C140.533971,83.8971148 141.808479,82.0892758 142.74759,80.0805661 C143.686701,78.0718565 144.022097,75.7953184 143.686701,73.3179096 L143.686701,73.3179096 L143.686701,72.5813826 C142.412193,70.9074578 141.271844,69.97006 140.332733,69.7022321 Z M81.4370774,42.4436127 L81.7724543,42.4507349 C83.5165174,42.5846489 85.126422,42.9863909 86.6021681,43.722918 C88.0779138,44.4594446 89.2182627,45.5307565 89.8890565,46.8698965 C90.5598499,48.2759933 90.8281673,49.7490474 90.6940088,51.4229722 C90.4927707,53.096897 90.023215,54.7708218 89.0841042,56.5117039 C88.144993,58.2525856 86.9375648,59.7925966 85.3276602,61.0647797 C83.7177556,62.4039196 81.9066128,63.0065324 79.9613115,62.8726182 C78.0160103,62.7387045 76.1377882,62.3369623 74.4608044,61.6004356 C72.5825824,60.7299943 70.5702014,59.5917255 68.5578209,58.1856287 C69.5640113,54.0342952 70.7714396,50.8203594 72.180106,48.5438213 C73.5887728,46.2672836 75.1315977,44.6603157 76.8085816,43.722918 C78.4184862,42.7855199 80.0954705,42.3837779 81.7724543,42.4507349 Z M501.622152,43.3881327 C503.232054,42.3837779 504.976119,41.9820359 506.653102,42.1159499 C508.397167,42.2498639 510.007069,42.6516059 511.482817,43.3881327 C512.95856,44.1246597 514.09891,45.1959717 514.769702,46.5351116 C515.440499,47.9412084 515.708816,49.4142625 515.574657,51.0881873 C515.373418,52.6951552 514.903865,54.36908 513.964751,56.0430048 C513.025642,57.6499727 511.818211,59.1899838 510.208309,60.4621664 C508.598402,61.8013063 506.787261,62.4039196 504.84196,62.3369623 C502.829578,62.2700054 501.018436,61.9352205 499.274372,61.2656503 C497.396153,60.5291237 495.383771,59.3908549 493.371389,57.8508438 C494.37758,53.6995099 495.585006,50.4855745 496.993673,48.2090364 C498.402339,45.9324987 499.945164,44.3255308 501.622152,43.3881327 Z" id="logo-white" fill="#FFFFFF" fill-rule="nonzero"></path>
    </g>
</svg>